<?xml version="1.0" encoding="UTF-8" standalone="no"?>
<svg xmlns="http://www.w3.org/2000/svg" version="1.1" width="3000" height="3000" viewBox="0 0 1400 1400">
  <g id="tile-content" data-style-dna-id="retroOrganic" data-style-dna-name="Retro Organic" data-style-dna-version="1">
    <defs>
      <clipPath id="tile-clip">
        <rect x="0" y="0" width="1400" height="1400" />
      </clipPath>
    </defs>
    <g id="layer-background">
      <rect x="0" y="0" width="1400" height="1400" fill="#FFF1E0" />
    </g>
    <g id="layer-pattern" clip-path="url(#tile-clip)">
      <g id="layer-filler">
        <polygon points="880.956,595.037 893.692,607.773 880.956,620.51 868.219,607.773" fill="#d5bfc3" />
        <circle cx="37.427" cy="1244.737" r="7.779" fill="#d5bfc3" />
        <g transform="translate(1149.634 1097.968) rotate(22)">
          <rect x="-12.042" y="-3.612" width="24.083" height="7.225" fill="#d5bfc3" />
          <rect x="-3.612" y="-12.042" width="7.225" height="24.083" fill="#d5bfc3" />
        </g>
        <circle cx="861.293" cy="457.436" r="8.593" fill="#d5bfc3" />
        <circle cx="755.235" cy="1147.595" r="8.062" fill="none" stroke="#fbcdc0" stroke-width="4.927" />
        <circle cx="469.304" cy="1264.898" r="8.497" fill="#fbcdc0" />
        <polygon points="158.275,62.272 166.064,70.061 158.275,77.85 150.486,70.061" fill="#fbcdc0" />
        <circle cx="1241.17" cy="969.71" r="6.466" fill="none" stroke="#fbcdc0" stroke-width="3.952" />
        <circle cx="1288.491" cy="1153.991" r="8.169" fill="none" stroke="#d5bfc3" stroke-width="4.992" />
        <g transform="translate(455.447 509.633) rotate(41)">
          <rect x="-10.649" y="-3.195" width="21.297" height="6.389" fill="#fbcdc0" />
          <rect x="-3.195" y="-10.649" width="6.389" height="21.297" fill="#fbcdc0" />
        </g>
        <g transform="translate(1024.348 901.874) rotate(59)">
          <rect x="-10.431" y="-3.129" width="20.863" height="6.259" fill="#fbcdc0" />
          <rect x="-3.129" y="-10.431" width="6.259" height="20.863" fill="#fbcdc0" />
        </g>
        <circle cx="376.921" cy="836.705" r="11.606" fill="none" stroke="#d5bfc3" stroke-width="7.092" />
        <circle cx="431.646" cy="1088.614" r="6.219" fill="none" stroke="#fbcdc0" stroke-width="3.801" />
        <circle cx="331.843" cy="1182.27" r="8.838" fill="none" stroke="#fbcdc0" stroke-width="5.401" />
        <g transform="translate(354.428 967.041) rotate(75)">
          <rect x="-9.31" y="-2.793" width="18.621" height="5.586" fill="#fbcdc0" />
          <rect x="-2.793" y="-9.31" width="5.586" height="18.621" fill="#fbcdc0" />
        </g>
        <circle cx="1027.389" cy="516.335" r="11.836" fill="#fbcdc0" />
        <g transform="translate(657.929 626.884) rotate(49)">
          <rect x="-9.683" y="-2.905" width="19.366" height="5.81" fill="#fbcdc0" />
          <rect x="-2.905" y="-9.683" width="5.81" height="19.366" fill="#fbcdc0" />
        </g>
        <polygon points="129.452,423.397 137.012,430.958 129.452,438.519 121.891,430.958" fill="#fbcdc0" />
        <circle cx="976.345" cy="342.068" r="10.225" fill="none" stroke="#fbcdc0" stroke-width="6.249" />
        <circle cx="576.767" cy="1318.836" r="8.484" fill="#d5bfc3" />
        <polygon points="650.458,1257.145 658.325,1265.012 650.458,1272.88 642.59,1265.012" fill="#d5bfc3" />
        <circle cx="1261.377" cy="183.279" r="8.574" fill="none" stroke="#d5bfc3" stroke-width="5.24" />
        <circle cx="1100.988" cy="446.001" r="9.956" fill="none" stroke="#fbcdc0" stroke-width="6.084" />
        <circle cx="385.85" cy="31.926" r="6.757" fill="#d5bfc3" />
        <circle cx="219.662" cy="983.997" r="9.465" fill="#fbcdc0" />
        <circle cx="1052.579" cy="-12.494" r="8.032" fill="none" stroke="#d5bfc3" stroke-width="4.908" />
        <circle cx="1052.579" cy="1387.506" r="8.032" fill="none" stroke="#d5bfc3" stroke-width="4.908" />
        <g transform="translate(459.095 680.648) rotate(22)">
          <rect x="-9.78" y="-2.934" width="19.559" height="5.868" fill="#fbcdc0" />
          <rect x="-2.934" y="-9.78" width="5.868" height="19.559" fill="#fbcdc0" />
        </g>
        <circle cx="614.57" cy="739.409" r="9.53" fill="#fbcdc0" />
        <g transform="translate(745.75 887.266) rotate(54)">
          <rect x="-7.308" y="-2.192" width="14.616" height="4.385" fill="#fbcdc0" />
          <rect x="-2.192" y="-7.308" width="4.385" height="14.616" fill="#fbcdc0" />
        </g>
        <circle cx="354.669" cy="631.898" r="9.287" fill="none" stroke="#fbcdc0" stroke-width="5.676" />
        <polygon points="1322.348,1058.096 1335.376,1071.124 1322.348,1084.152 1309.321,1071.124" fill="#d5bfc3" />
        <g transform="translate(852.334 1038.809) rotate(76)">
          <rect x="-10.771" y="-3.231" width="21.541" height="6.462" fill="#fbcdc0" />
          <rect x="-3.231" y="-10.771" width="6.462" height="21.541" fill="#fbcdc0" />
        </g>
        <g transform="translate(1279.315 522.164) rotate(57)">
          <rect x="-11.908" y="-3.572" width="23.816" height="7.145" fill="#fbcdc0" />
          <rect x="-3.572" y="-11.908" width="7.145" height="23.816" fill="#fbcdc0" />
        </g>
        <circle cx="523.636" cy="445.928" r="9.165" fill="#fbcdc0" />
        <polygon points="1133.641,6.416 1146.612,19.387 1133.641,32.358 1120.67,19.387" fill="#d5bfc3" />
        <polygon points="1133.641,1406.416 1146.612,1419.387 1133.641,1432.358 1120.67,1419.387" fill="#d5bfc3" />
        <polygon points="414.061,255.052 425.925,266.916 414.061,278.779 402.198,266.916" fill="#fbcdc0" />
        <circle cx="139.284" cy="1019.525" r="8.832" fill="none" stroke="#fbcdc0" stroke-width="5.397" />
        <polygon points="44.622,192.523 56.632,204.534 44.622,216.545 32.611,204.534" fill="#fbcdc0" />
        <g transform="translate(332.278 189.607) rotate(64)">
          <rect x="-7.725" y="-2.317" width="15.449" height="4.635" fill="#fbcdc0" />
          <rect x="-2.317" y="-7.725" width="4.635" height="15.449" fill="#fbcdc0" />
        </g>
        <circle cx="330.93" cy="448.92" r="12.37" fill="#fbcdc0" />
        <polygon points="202.632,522.785 211.261,531.414 202.632,540.043 194.003,531.414" fill="#fbcdc0" />
        <polygon points="751.194,396.322 758.332,403.459 751.194,410.597 744.057,403.459" fill="#fbcdc0" />
        <circle cx="1269.451" cy="66.295" r="7.7" fill="#fbcdc0" />
        <polygon points="967.898,1338.899 978.401,1349.402 967.898,1359.906 957.394,1349.402" fill="#fbcdc0" />
        <circle cx="574.352" cy="109.887" r="8.953" fill="none" stroke="#fbcdc0" stroke-width="5.472" />
        <polygon points="1093.045,225.396 1102.552,234.903 1093.045,244.41 1083.538,234.903" fill="#d5bfc3" />
        <g transform="translate(400.176 402.312) rotate(74)">
          <rect x="-6.327" y="-1.898" width="12.654" height="3.796" fill="#d5bfc3" />
          <rect x="-1.898" y="-6.327" width="3.796" height="12.654" fill="#d5bfc3" />
        </g>
        <circle cx="53.881" cy="38.118" r="8.959" fill="#d5bfc3" />
        <circle cx="1111.644" cy="126.225" r="10.992" fill="none" stroke="#d5bfc3" stroke-width="6.717" />
        <polygon points="376.272,1269.929 386.335,1279.992 376.272,1290.055 366.209,1279.992" fill="#fbcdc0" />
        <circle cx="1039.513" cy="782.166" r="7.692" fill="none" stroke="#d5bfc3" stroke-width="4.7" />
        <circle cx="519.048" cy="290.754" r="8.964" fill="none" stroke="#fbcdc0" stroke-width="5.478" />
        <circle cx="1357.512" cy="998.496" r="5.963" fill="none" stroke="#d5bfc3" stroke-width="3.644" />
        <g transform="translate(-5.697 688.405) rotate(75)">
          <rect x="-9.017" y="-2.705" width="18.035" height="5.41" fill="#fbcdc0" />
          <rect x="-2.705" y="-9.017" width="5.41" height="18.035" fill="#fbcdc0" />
        </g>
        <g transform="translate(1394.303 688.405) rotate(75)">
          <rect x="-9.017" y="-2.705" width="18.035" height="5.41" fill="#fbcdc0" />
          <rect x="-2.705" y="-9.017" width="5.41" height="18.035" fill="#fbcdc0" />
        </g>
        <circle cx="617.19" cy="1001.684" r="8.045" fill="none" stroke="#fbcdc0" stroke-width="4.916" />
        <polygon points="49.825,1084.798 62.258,1097.232 49.825,1109.665 37.391,1097.232" fill="#fbcdc0" />
        <polygon points="141.418,1163.899 149.117,1171.597 141.418,1179.296 133.72,1171.597" fill="#fbcdc0" />
        <circle cx="529.216" cy="568.252" r="11.157" fill="none" stroke="#d5bfc3" stroke-width="6.818" />
        <g transform="translate(256.055 598.652) rotate(23)">
          <rect x="-8.668" y="-2.6" width="17.336" height="5.201" fill="#fbcdc0" />
          <rect x="-2.6" y="-8.668" width="5.201" height="17.336" fill="#fbcdc0" />
        </g>
        <polygon points="194.516,258.578 202.542,266.604 194.516,274.63 186.49,266.604" fill="#d5bfc3" />
        <circle cx="1268.565" cy="-13.595" r="11.782" fill="none" stroke="#d5bfc3" stroke-width="7.2" />
        <circle cx="1268.565" cy="1386.405" r="11.782" fill="none" stroke="#d5bfc3" stroke-width="7.2" />
        <circle cx="581.289" cy="891.77" r="7.233" fill="none" stroke="#d5bfc3" stroke-width="4.42" />
        <circle cx="1182.121" cy="839.355" r="8.369" fill="#fbcdc0" />
        <polygon points="1018.283,1243.643 1031.358,1256.718 1018.283,1269.793 1005.208,1256.718" fill="#fbcdc0" />
        <circle cx="499.295" cy="860.335" r="9.437" fill="none" stroke="#fbcdc0" stroke-width="5.767" />
        <circle cx="1135.427" cy="987.949" r="7.975" fill="none" stroke="#d5bfc3" stroke-width="4.874" />
        <g transform="translate(1234.584 748.448) rotate(10)">
          <rect x="-12.072" y="-3.622" width="24.145" height="7.243" fill="#fbcdc0" />
          <rect x="-3.622" y="-12.072" width="7.243" height="24.145" fill="#fbcdc0" />
        </g>
        <g transform="translate(555.95 1083.464) rotate(88)">
          <rect x="-11.448" y="-3.435" width="22.897" height="6.869" fill="#fbcdc0" />
          <rect x="-3.435" y="-11.448" width="6.869" height="22.897" fill="#fbcdc0" />
        </g>
        <circle cx="886.643" cy="377.843" r="5.82" fill="none" stroke="#d5bfc3" stroke-width="3.557" />
        <circle cx="878.01" cy="1360.093" r="11.491" fill="#d5bfc3" />
        <circle cx="866.723" cy="1229.316" r="7.053" fill="none" stroke="#fbcdc0" stroke-width="4.31" />
        <circle cx="1347.478" cy="1270.804" r="7.987" fill="#d5bfc3" />
        <g transform="translate(170.858 1379.929) rotate(44)">
          <rect x="-7.331" y="-2.199" width="14.662" height="4.399" fill="#fbcdc0" />
          <rect x="-2.199" y="-7.331" width="4.399" height="14.662" fill="#fbcdc0" />
        </g>
        <circle cx="1007.683" cy="640.243" r="8.808" fill="#fbcdc0" />
        <polygon points="945.834,733.789 957.521,745.476 945.834,757.163 934.147,745.476" fill="#fbcdc0" />
        <g transform="translate(1377.934 1160.531) rotate(23)">
          <rect x="-7.2" y="-2.16" width="14.401" height="4.32" fill="#fbcdc0" />
          <rect x="-2.16" y="-7.2" width="4.32" height="14.401" fill="#fbcdc0" />
        </g>
        <circle cx="508.259" cy="1009.731" r="6.086" fill="none" stroke="#d5bfc3" stroke-width="3.719" />
        <circle cx="124.802" cy="911.213" r="9.65" fill="none" stroke="#fbcdc0" stroke-width="5.897" />
        <g transform="translate(664.504 147.698) rotate(45)">
          <rect x="-13.012" y="-3.904" width="26.024" height="7.807" fill="#d5bfc3" />
          <rect x="-3.904" y="-13.012" width="7.807" height="26.024" fill="#d5bfc3" />
        </g>
        <circle cx="589.943" cy="214.48" r="7.643" fill="none" stroke="#fbcdc0" stroke-width="4.67" />
        <circle cx="795.968" cy="230.883" r="10.261" fill="none" stroke="#fbcdc0" stroke-width="6.271" />
        <polygon points="1287.229,811.356 1293.804,817.932 1287.229,824.508 1280.653,817.932" fill="#d5bfc3" />
        <circle cx="191.915" cy="733.043" r="9.126" fill="#d5bfc3" />
        <circle cx="152.105" cy="631.207" r="6.344" fill="#fbcdc0" />
        <g transform="translate(745.636 -9.046) rotate(72)">
          <rect x="-7.181" y="-2.154" width="14.362" height="4.309" fill="#d5bfc3" />
          <rect x="-2.154" y="-7.181" width="4.309" height="14.362" fill="#d5bfc3" />
        </g>
        <g transform="translate(745.636 1390.954) rotate(72)">
          <rect x="-7.181" y="-2.154" width="14.362" height="4.309" fill="#d5bfc3" />
          <rect x="-2.154" y="-7.181" width="4.309" height="14.362" fill="#d5bfc3" />
        </g>
        <polygon points="1351.777,1352.843 1359.874,1360.941 1351.777,1369.038 1343.679,1360.941" fill="#d5bfc3" />
        <circle cx="750.723" cy="998.51" r="7.644" fill="none" stroke="#fbcdc0" stroke-width="4.671" />
        <g transform="translate(954.545 1015.909) rotate(47)">
          <rect x="-12.607" y="-3.782" width="25.214" height="7.564" fill="#fbcdc0" />
          <rect x="-3.782" y="-12.607" width="7.564" height="25.214" fill="#fbcdc0" />
        </g>
        <polygon points="1353.281,110.209 1362.902,119.829 1353.281,129.45 1343.661,119.829" fill="#fbcdc0" />
        <g transform="translate(1167.673 609.886) rotate(19)">
          <rect x="-13.235" y="-3.971" width="26.471" height="7.941" fill="#d5bfc3" />
          <rect x="-3.971" y="-13.235" width="7.941" height="26.471" fill="#d5bfc3" />
        </g>
        <circle cx="50.573" cy="369.215" r="8.328" fill="#fbcdc0" />
        <g transform="translate(81.322 676.261) rotate(75)">
          <rect x="-10.106" y="-3.032" width="20.212" height="6.064" fill="#d5bfc3" />
          <rect x="-3.032" y="-10.106" width="6.064" height="20.212" fill="#d5bfc3" />
        </g>
        <g transform="translate(827.399 847.19) rotate(52)">
          <rect x="-12.126" y="-3.638" width="24.252" height="7.276" fill="#fbcdc0" />
          <rect x="-3.638" y="-12.126" width="7.276" height="24.252" fill="#fbcdc0" />
        </g>
        <g transform="translate(487.877 1181.374) rotate(69)">
          <rect x="-12.829" y="-3.849" width="25.657" height="7.697" fill="#d5bfc3" />
          <rect x="-3.849" y="-12.829" width="7.697" height="25.657" fill="#d5bfc3" />
        </g>
        <g transform="translate(1178.255 191.462) rotate(28)">
          <rect x="-12.951" y="-3.885" width="25.903" height="7.771" fill="#d5bfc3" />
          <rect x="-3.885" y="-12.951" width="7.771" height="25.903" fill="#d5bfc3" />
        </g>
        <circle cx="1366.182" cy="840.06" r="9.812" fill="#fbcdc0" />
        <circle cx="955.191" cy="862.627" r="9.117" fill="#d5bfc3" />
        <g transform="translate(22.312 921.752) rotate(75)">
          <rect x="-11.024" y="-3.307" width="22.047" height="6.614" fill="#d5bfc3" />
          <rect x="-3.307" y="-11.024" width="6.614" height="22.047" fill="#d5bfc3" />
        </g>
        <g transform="translate(1422.312 921.752) rotate(75)">
          <rect x="-11.024" y="-3.307" width="22.047" height="6.614" fill="#d5bfc3" />
          <rect x="-3.307" y="-11.024" width="6.614" height="22.047" fill="#d5bfc3" />
        </g>
        <circle cx="275.757" cy="1123.772" r="8.301" fill="none" stroke="#fbcdc0" stroke-width="5.073" />
        <circle cx="68.861" cy="799.261" r="10.407" fill="none" stroke="#d5bfc3" stroke-width="6.36" />
        <polygon points="961.421,446.506 971.966,457.05 961.421,467.595 950.877,457.05" fill="#fbcdc0" />
        <circle cx="277.286" cy="359.206" r="10.654" fill="none" stroke="#d5bfc3" stroke-width="6.511" />
        <g transform="translate(194.929 1103.375) rotate(65)">
          <rect x="-9.236" y="-2.771" width="18.472" height="5.542" fill="#fbcdc0" />
          <rect x="-2.771" y="-9.236" width="5.542" height="18.472" fill="#fbcdc0" />
        </g>
        <circle cx="893.454" cy="923.381" r="12.874" fill="#d5bfc3" />
        <g transform="translate(1295.169 277.345) rotate(8)">
          <rect x="-11.009" y="-3.303" width="22.017" height="6.605" fill="#fbcdc0" />
          <rect x="-3.303" y="-11.009" width="6.605" height="22.017" fill="#fbcdc0" />
        </g>
        <polygon points="682.576,48.639 692.321,58.383 682.576,68.128 672.832,58.383" fill="#d5bfc3" />
        <polygon points="1212.091,432.705 1219.942,440.556 1212.091,448.407 1204.24,440.556" fill="#d5bfc3" />
        <circle cx="286.815" cy="723.746" r="7.498" fill="none" stroke="#fbcdc0" stroke-width="4.582" />
        <circle cx="1004.945" cy="1149.971" r="8.234" fill="#fbcdc0" />
        <polygon points="737.374,659.976 744.006,666.608 737.374,673.24 730.742,666.608" fill="#fbcdc0" />
        <circle cx="1164.261" cy="333.116" r="6.737" fill="#d5bfc3" />
        <circle cx="248.407" cy="1220.459" r="9.183" fill="none" stroke="#fbcdc0" stroke-width="5.612" />
        <g transform="translate(136.65 1250.842) rotate(49)">
          <rect x="-9.017" y="-2.705" width="18.033" height="5.41" fill="#fbcdc0" />
          <rect x="-2.705" y="-9.017" width="5.41" height="18.033" fill="#fbcdc0" />
        </g>
        <polygon points="427.295,764.308 434.951,771.963 427.295,779.619 419.639,771.963" fill="#d5bfc3" />
        <circle cx="100.447" cy="547.395" r="9.051" fill="#d5bfc3" />
        <circle cx="533.964" cy="712.583" r="7.665" fill="none" stroke="#d5bfc3" stroke-width="4.684" />
        <polygon points="1292.725,597.803 1301.021,606.099 1292.725,614.395 1284.428,606.099" fill="#fbcdc0" />
        <polygon points="747.241,566.998 755.221,574.979 747.241,582.959 739.26,574.979" fill="#fbcdc0" />
        <g transform="translate(953.641 97.462) rotate(80)">
          <rect x="-11.055" y="-3.316" width="22.109" height="6.633" fill="#d5bfc3" />
          <rect x="-3.316" y="-11.055" width="6.633" height="22.109" fill="#d5bfc3" />
        </g>
        <polygon points="1345.761,376.823 1357.234,388.296 1345.761,399.769 1334.288,388.296" fill="#fbcdc0" />
        <g transform="translate(453.597 342.617) rotate(6)">
          <rect x="-8.899" y="-2.67" width="17.799" height="5.34" fill="#d5bfc3" />
          <rect x="-2.67" y="-8.899" width="5.34" height="17.799" fill="#d5bfc3" />
        </g>
        <g transform="translate(602.484 31.791) rotate(16)">
          <rect x="-11.341" y="-3.402" width="22.682" height="6.805" fill="#d5bfc3" />
          <rect x="-3.402" y="-11.341" width="6.805" height="22.682" fill="#d5bfc3" />
        </g>
        <circle cx="946.354" cy="247.329" r="6.508" fill="none" stroke="#fbcdc0" stroke-width="3.977" />
      </g>
      <g id="motif-1" data-role="accent">
        <g transform="translate(180.304 647.871) rotate(45.82) scale(0.232)">
          <g>
            <path d="M 35.738 0 C 35.581 6.668, 28.518 15.037, 23.368 19.608 C 18.218 24.18, 11.57 25.782, 4.837 27.43 C -1.897 29.079, -11.807 32.462, -17.031 29.499 C -22.255 26.535, -23.853 16.564, -26.508 9.648 C -29.162 2.732, -34.851 -6.014, -32.958 -11.996 C -31.065 -17.978, -21.543 -23.147, -15.151 -26.243 C -8.76 -29.339, -1.186 -31.545, 5.39 -30.571 C 11.967 -29.597, 19.252 -25.494, 24.31 -20.398 C 29.368 -15.303, 35.895 -6.668, 35.738 0 Z" fill="#EF6F6C" />
            <path d="M 19.271 -2.416 C 18.97 2.985, 18.408 9.293, 15.345 13.029 C 12.281 16.764, 5.829 19.33, 0.89 19.996 C -4.048 20.662, -9.505 19.259, -14.285 17.023 C -19.064 14.788, -26.138 11.103, -27.786 6.583 C -29.434 2.062, -26.275 -5.106, -24.172 -10.1 C -22.068 -15.093, -19.407 -20.555, -15.165 -23.38 C -10.923 -26.205, -4.104 -27.719, 1.282 -27.051 C 6.668 -26.384, 14.153 -23.483, 17.151 -19.377 C 20.15 -15.271, 19.572 -7.817, 19.271 -2.416 Z" fill="#EF6F6C" />
            <path d="M 15.972 3.244 C 16.188 6.877, 14 11.879, 11.473 14.687 C 8.946 17.496, 4.4 19.717, 0.807 20.096 C -2.785 20.475, -7.129 18.874, -10.083 16.96 C -13.037 15.047, -15.371 11.944, -16.918 8.614 C -18.464 5.285, -20.512 0.147, -19.361 -3.015 C -18.211 -6.176, -13.363 -8.665, -10.015 -10.353 C -6.667 -12.042, -2.639 -13.685, 0.726 -13.145 C 4.091 -12.604, 7.634 -9.841, 10.175 -7.109 C 12.716 -4.378, 15.755 -0.388, 15.972 3.244 Z" fill="#EF6F6C" />
          </g>
          <g transform="translate(-11.212 -11.96) rotate(-28)">
            <ellipse cx="0" cy="0" rx="11.213" ry="6.728" fill="#fff9f3" />
          </g>
        </g>
      </g>
      <g id="motif-2" data-role="accent">
        <g transform="translate(539.421 981.667) rotate(101.758) scale(0.222)">
          <path d="M 32.138 0 C 31.856 6.18, 31.202 13.27, 28.005 17.998 C 24.808 22.726, 18.383 26.081, 12.955 28.368 C 7.528 30.655, 1.09 32.42, -4.561 31.721 C -10.212 31.023, -16.052 27.802, -20.949 24.176 C -25.845 20.55, -32.29 15.505, -33.941 9.966 C -35.591 4.427, -33.093 -3.457, -30.851 -9.059 C -28.609 -14.661, -24.78 -19.242, -20.489 -23.645 C -16.197 -28.048, -10.877 -34.247, -5.101 -35.477 C 0.675 -36.707, 8.369 -33.757, 14.169 -31.025 C 19.968 -28.293, 26.702 -24.256, 29.697 -19.085 C 32.691 -13.914, 32.42 -6.18, 32.138 0 Z" fill="#2E2360" />
          <g transform="translate(-11.014 -11.748) rotate(-28)">
            <ellipse cx="0" cy="0" rx="11.014" ry="6.608" fill="#fff9f3" />
          </g>
        </g>
      </g>
      <g id="motif-3" data-role="accent">
        <g transform="translate(967.252 671.984) rotate(81.198) scale(0.201)">
          <g>
            <path d="M 30.401 0 C 30.09 6.551, 29.393 13.466, 26.116 18.974 C 22.839 24.483, 16.893 30.667, 10.739 33.05 C 4.584 35.434, -4.846 35.75, -10.812 33.276 C -16.778 30.802, -20.99 23.752, -25.058 18.206 C -29.126 12.66, -35.204 6.08, -35.22 0 C -35.236 -6.08, -29.285 -12.918, -25.156 -18.277 C -21.027 -23.636, -16.256 -30.227, -10.447 -32.153 C -4.639 -34.08, 3.289 -31.804, 9.694 -29.834 C 16.098 -27.863, 24.531 -25.302, 27.982 -20.33 C 31.433 -15.358, 30.712 -6.551, 30.401 0 Z" fill="#6A3E7A" />
            <path d="M 21.924 2.531 C 22.13 7.61, 21.557 14.479, 18.623 18.218 C 15.69 21.956, 9.293 23.355, 4.322 24.964 C -0.649 26.573, -6.936 29.395, -11.201 27.873 C -15.466 26.35, -18.855 20.051, -21.268 15.828 C -23.68 11.604, -25.761 6.9, -25.674 2.531 C -25.587 -1.838, -23.305 -6.612, -20.746 -10.386 C -18.188 -14.161, -14.425 -18.771, -10.325 -20.115 C -6.226 -21.459, -0.768 -19.76, 3.85 -18.449 C 8.469 -17.139, 14.372 -15.751, 17.384 -12.254 C 20.396 -8.757, 21.717 -2.547, 21.924 2.531 Z" fill="#6A3E7A" />
            <path d="M 12.389 -1.569 C 12.191 1.881, 11.905 5.772, 10.082 8.35 C 8.26 10.928, 4.549 13.037, 1.456 13.9 C -1.637 14.764, -5.47 14.535, -8.477 13.532 C -11.484 12.53, -14.826 10.404, -16.585 7.887 C -18.345 5.37, -18.801 1.753, -19.035 -1.569 C -19.27 -4.892, -19.724 -9.444, -17.992 -12.047 C -16.261 -14.651, -11.863 -16.437, -8.646 -17.192 C -5.43 -17.947, -2.013 -17.385, 1.306 -16.578 C 4.626 -15.772, 9.424 -14.854, 11.271 -12.352 C 13.118 -9.851, 12.587 -5.02, 12.389 -1.569 Z" fill="#EF6F6C" />
          </g>
          <g transform="translate(-11.212 -11.96) rotate(-28)">
            <ellipse cx="0" cy="0" rx="11.213" ry="6.728" fill="#fff9f3" />
          </g>
        </g>
      </g>
      <g id="motif-4" data-role="accent">
        <g transform="translate(1349.938 367.127) rotate(312.01) scale(0.207)">
          <g>
            <path d="M -32.5 0 A 32.5 32.5 0 0 0 32.5 0 L 0 0 Z" fill="#6A3E7A" transform="rotate(346.657)" />
            <path d="M -23.4 0 A 23.4 23.4 0 0 0 23.4 0 L 0 0 Z" fill="#EF6F6C" transform="rotate(226.754)" />
            <path d="M -14.3 0 A 14.3 14.3 0 0 0 14.3 0 L 0 0 Z" fill="#EF6F6C" transform="rotate(108.048)" />
          </g>
          <g transform="translate(-19.5 -20.8) rotate(-28)">
            <ellipse cx="0" cy="0" rx="19.5" ry="11.7" fill="#fff9f3" />
          </g>
        </g>
      </g>
      <g id="motif-5" data-role="filler">
        <g transform="translate(923.832 719.657) rotate(80.186) scale(0.326)">
          <path d="M -32.5 0 Q -16.25 -14.115 0 0 Q 16.25 14.115 32.5 0" fill="none" stroke="#EF6F6C" stroke-width="5.85" stroke-linecap="round" />
          <g transform="translate(-10.627 -11.336) rotate(-28)">
            <ellipse cx="0" cy="0" rx="10.628" ry="6.376" fill="#fff9f3" />
          </g>
        </g>
      </g>
      <g id="motif-6" data-role="filler">
        <g transform="translate(416.222 610.652) rotate(194.695) scale(0.52)">
          <path d="M 29.641 0 C 30.352 6.367, 28.873 15.408, 24.9 20.894 C 20.928 26.38, 13.025 31.079, 5.804 32.916 C -1.417 34.753, -12.645 35.649, -18.426 31.915 C -24.208 28.181, -26.613 17.776, -28.884 10.513 C -31.155 3.25, -34.717 -6.195, -32.05 -11.665 C -29.382 -17.135, -19.017 -19.74, -12.88 -22.309 C -6.743 -24.878, -0.81 -27.913, 4.775 -27.08 C 10.36 -26.247, 16.486 -21.824, 20.63 -17.311 C 24.774 -12.797, 28.929 -6.367, 29.641 0 Z" fill="#F7A072" />
          <g transform="translate(-11.348 -12.104) rotate(-28)">
            <ellipse cx="0" cy="0" rx="11.348" ry="6.809" fill="#fff9f3" />
          </g>
        </g>
      </g>
      <g id="motif-7" data-role="filler">
        <g transform="translate(1137.739 361.159) rotate(133.103) scale(0.508)">
          <g>
            <path d="M 34.203 0 C 33.914 7.329, 26.822 15.107, 21.122 21.122 C 15.421 27.136, 7.511 35.615, 0 36.085 C -7.511 36.555, -18.632 29.957, -23.943 23.943 C -29.254 17.929, -32.206 7.641, -31.866 0 C -31.526 -7.641, -27.217 -17.169, -21.906 -21.906 C -16.595 -26.643, -7.46 -28.265, 0 -28.423 C 7.46 -28.581, 17.154 -27.592, 22.854 -22.854 C 28.555 -18.117, 34.492 -7.329, 34.203 0 Z" fill="#6A3E7A" />
            <path d="M 23.608 -3.899 C 23.267 1.127, 20.293 6.659, 17.015 10.32 C 13.737 13.98, 8.939 16.672, 3.942 18.065 C -1.055 19.458, -8.959 21.117, -12.967 18.68 C -16.974 16.242, -18.071 8.734, -20.1 3.442 C -22.129 -1.851, -26.707 -8.743, -25.14 -13.075 C -23.573 -17.407, -15.514 -20.598, -10.699 -22.551 C -5.883 -24.504, -1.207 -25.245, 3.754 -24.793 C 8.714 -24.34, 15.755 -23.32, 19.064 -19.838 C 22.373 -16.355, 23.95 -8.926, 23.608 -3.899 Z" fill="#6A3E7A" />
          </g>
          <g transform="translate(-11.212 -11.96) rotate(-28)">
            <ellipse cx="0" cy="0" rx="11.213" ry="6.728" fill="#fff9f3" />
          </g>
        </g>
      </g>
      <g id="motif-8" data-role="filler">
        <g transform="translate(67.088 220.616) rotate(256.023) scale(0.408)">
          <path d="M 28.929 0 C 29.703 5.774, 31.488 13.099, 29.277 18.815 C 27.066 24.531, 21.4 31.468, 15.663 34.298 C 9.926 37.127, 0.459 38.05, -5.146 35.79 C -10.751 33.529, -12.641 24.884, -17.967 20.735 C -23.292 16.585, -35.036 15.834, -37.099 10.893 C -39.162 5.952, -33.173 -3.223, -30.345 -8.91 C -27.517 -14.597, -24.542 -20.234, -20.129 -23.23 C -15.716 -26.227, -9.399 -25.991, -3.866 -26.888 C 1.667 -27.786, 8.317 -30.456, 13.067 -28.613 C 17.817 -26.77, 21.989 -20.599, 24.632 -15.83 C 27.276 -11.061, 28.155 -5.774, 28.929 0 Z" fill="#F7A072" />
          <g transform="translate(-11.884 -12.676) rotate(-28)">
            <ellipse cx="0" cy="0" rx="11.884" ry="7.13" fill="#fff9f3" />
          </g>
        </g>
      </g>
      <g id="motif-9" data-role="filler">
        <g transform="translate(116.436 106.23) rotate(157.461) scale(0.264)">
          <path d="M 34.498 0 C 34.055 7.507, 30.252 15.696, 25.509 21.405 C 20.766 27.113, 13.116 32.927, 6.04 34.252 C -1.036 35.577, -10.884 33.221, -16.947 29.353 C -23.011 25.485, -28.142 17.764, -30.341 11.043 C -32.54 4.323, -32.831 -5.029, -30.142 -10.971 C -27.453 -16.912, -20.201 -20.934, -14.207 -24.607 C -8.213 -28.28, -1.242 -33.171, 5.82 -33.009 C 12.883 -32.847, 23.388 -29.137, 28.168 -23.636 C 32.948 -18.134, 34.942 -7.507, 34.498 0 Z" fill="#6A3E7A" />
          <g transform="translate(-11.283 -12.035) rotate(-28)">
            <ellipse cx="0" cy="0" rx="11.283" ry="6.77" fill="#fff9f3" />
          </g>
        </g>
      </g>
      <g id="motif-10" data-role="filler">
        <g transform="translate(606.601 482.388) rotate(247.054) scale(0.333)">
          <g>
            <circle cx="6.845" cy="5.668" r="5.847" fill="#EF6F6C" />
            <circle cx="-4.842" cy="0.772" r="5.584" fill="#EF6F6C" />
            <path d="M -11.803 8.724 C -11.788 10.023, -12.865 12.433, -13.883 12.763 C -14.902 13.092, -17.173 11.754, -17.916 10.7 C -18.659 9.646, -18.998 7.393, -18.342 6.438 C -17.685 5.483, -15.065 4.588, -13.976 4.969 C -12.886 5.35, -11.818 7.425, -11.803 8.724 Z" fill="#6A3E7A" />
          </g>
          <g transform="translate(-10.237 -10.92) rotate(-28)">
            <ellipse cx="0" cy="0" rx="10.237" ry="6.143" fill="#fff9f3" />
          </g>
        </g>
      </g>
      <g id="motif-11" data-role="filler">
        <g transform="translate(1290.786 498.728) rotate(259.302) scale(0.365)">
          <path d="M -32.5 0 Q -16.25 -13.261 0 0 Q 16.25 13.261 32.5 0" fill="none" stroke="#6A3E7A" stroke-width="5.85" stroke-linecap="round" />
          <g transform="translate(-10.627 -11.336) rotate(-28)">
            <ellipse cx="0" cy="0" rx="10.628" ry="6.376" fill="#fff9f3" />
          </g>
        </g>
      </g>
      <g id="motif-12" data-role="filler">
        <g transform="translate(1283.313 994.538) rotate(334.188) scale(0.377)">
          <g>
            <path d="M 11.531 10.716 C 11.584 12.504, 9.117 16.018, 7.348 16.567 C 5.578 17.116, 2.036 15.57, 0.914 14.009 C -0.209 12.449, -0.408 8.564, 0.611 7.203 C 1.631 5.842, 5.211 5.256, 7.031 5.841 C 8.851 6.427, 11.479 8.929, 11.531 10.716 Z" fill="#6A3E7A" />
            <circle cx="7.865" cy="-1.436" r="6.1" fill="#6A3E7A" />
            <path d="M 8.432 1.807 C 8.353 4.141, 5.477 7.31, 3.197 8.086 C 0.918 8.861, -3.982 8.173, -5.244 6.457 C -6.506 4.741, -5.858 -0.149, -4.373 -2.212 C -2.888 -4.274, 1.534 -6.59, 3.668 -5.92 C 5.802 -5.25, 8.51 -0.528, 8.432 1.807 Z" fill="#EF6F6C" />
            <path d="M 7.185 0.168 C 7.182 1.897, 4.367 4.677, 2.393 5.328 C 0.419 5.979, -3.505 5.57, -4.659 4.074 C -5.814 2.579, -5.712 -2.127, -4.534 -3.646 C -3.355 -5.165, 0.456 -5.677, 2.409 -5.041 C 4.362 -4.405, 7.188 -1.56, 7.185 0.168 Z" fill="#EF6F6C" />
          </g>
          <g transform="translate(-10.237 -10.92) rotate(-28)">
            <ellipse cx="0" cy="0" rx="10.237" ry="6.143" fill="#fff9f3" />
          </g>
        </g>
      </g>
      <g id="motif-13" data-role="filler">
        <g transform="translate(189.874 265.649) rotate(257.774) scale(0.455)">
          <g>
            <path d="M -32.5 0 A 32.5 32.5 0 0 0 32.5 0 L 0 0 Z" fill="#F7A072" transform="rotate(112.362)" />
            <path d="M -23.4 0 A 23.4 23.4 0 0 0 23.4 0 L 0 0 Z" fill="#F7A072" transform="rotate(172.252)" />
          </g>
          <g transform="translate(-19.5 -20.8) rotate(-28)">
            <ellipse cx="0" cy="0" rx="19.5" ry="11.7" fill="#fff9f3" />
          </g>
        </g>
      </g>
      <g id="motif-14" data-role="filler">
        <g transform="translate(270.412 778.045) rotate(250.19) scale(0.508)">
          <path d="M 28.443 0 C 28.599 8.484, 30.662 20.425, 25.922 25.922 C 21.182 31.419, 7.711 33.915, 0 32.985 C -7.711 32.055, -14.691 25.839, -20.342 20.342 C -25.993 14.845, -33.334 7.354, -33.908 0 C -34.482 -7.354, -29.436 -18.06, -23.785 -23.785 C -18.134 -29.509, -8.128 -34.147, 0 -34.347 C 8.128 -34.547, 20.244 -30.708, 24.984 -24.984 C 29.724 -19.259, 28.286 -8.484, 28.443 0 Z" fill="#6A3E7A" />
          <g transform="translate(-11.368 -12.126) rotate(-28)">
            <ellipse cx="0" cy="0" rx="11.368" ry="6.821" fill="#fff9f3" />
          </g>
        </g>
      </g>
      <g id="motif-15" data-role="filler">
        <g transform="translate(67.255 827.567) rotate(26.099) scale(0.47)">
          <g>
            <path d="M 34.554 0 C 34.935 7.788, 30.266 18.725, 24.507 24.507 C 18.748 30.288, 8.136 34.722, 0 34.69 C -8.136 34.658, -18.937 30.093, -24.312 24.312 C -29.687 18.53, -32.655 7.701, -32.252 0 C -31.848 -7.701, -27.268 -16.9, -21.893 -21.893 C -16.517 -26.885, -7.352 -29.9, 0 -29.955 C 7.352 -30.01, 16.463 -27.214, 22.222 -22.222 C 27.981 -17.229, 34.173 -7.788, 34.554 0 Z" fill="#6A3E7A" />
            <path d="M 28.107 -1.493 C 28.351 3.142, 26.439 9.506, 23.471 12.942 C 20.503 16.378, 14.813 17.833, 10.301 19.122 C 5.789 20.411, 1.275 21.381, -3.601 20.677 C -8.476 19.972, -16.636 18.59, -18.954 14.895 C -21.272 11.2, -17.916 3.674, -17.509 -1.493 C -17.103 -6.661, -18.648 -11.845, -16.515 -16.109 C -14.382 -20.374, -9.26 -25.837, -4.711 -27.081 C -0.162 -28.326, 6.325 -25.613, 10.779 -23.577 C 15.232 -21.541, 19.12 -18.546, 22.009 -14.866 C 24.897 -11.185, 27.863 -6.128, 28.107 -1.493 Z" fill="#EF6F6C" />
          </g>
          <g transform="translate(-11.212 -11.96) rotate(-28)">
            <ellipse cx="0" cy="0" rx="11.213" ry="6.728" fill="#fff9f3" />
          </g>
        </g>
      </g>
      <g id="motif-16" data-role="filler">
        <g transform="translate(1204.748 1193.322) rotate(119.903) scale(0.554)">
          <path d="M 33.75 0 C 33.673 7.536, 34.537 16.364, 30.886 22.44 C 27.235 28.516, 18.628 35.164, 11.845 36.456 C 5.063 37.747, -2.55 32.425, -9.809 30.189 C -17.068 27.952, -28.959 28.07, -31.71 23.038 C -34.461 18.007, -26.442 7.588, -26.316 0 C -26.19 -7.588, -33.619 -17.193, -30.954 -22.49 C -28.289 -27.787, -17.392 -29.664, -10.327 -31.782 C -3.262 -33.899, 4.49 -36.696, 11.435 -35.195 C 18.381 -33.694, 27.628 -28.64, 31.347 -22.775 C 35.066 -16.909, 33.827 -7.536, 33.75 0 Z" fill="#6A3E7A" />
          <g transform="translate(-12.099 -12.906) rotate(-28)">
            <ellipse cx="0" cy="0" rx="12.099" ry="7.259" fill="#fff9f3" />
          </g>
        </g>
      </g>
      <g id="motif-17" data-role="filler">
        <g transform="translate(1198.827 6.614) rotate(138.632) scale(0.294)">
          <g>
            <path d="M -32.5 0 A 32.5 32.5 0 0 1 32.5 0 L 0 0 Z" fill="#6A3E7A" transform="rotate(240.901)" />
            <path d="M -23.4 0 A 23.4 23.4 0 0 0 23.4 0 L 0 0 Z" fill="#EF6F6C" transform="rotate(262.592)" />
          </g>
          <g transform="translate(-19.5 -20.8) rotate(-28)">
            <ellipse cx="0" cy="0" rx="19.5" ry="11.7" fill="#fff9f3" />
          </g>
        </g>
        <g transform="translate(1198.827 1406.614) rotate(138.632) scale(0.294)">
          <g>
            <path d="M -32.5 0 A 32.5 32.5 0 0 1 32.5 0 L 0 0 Z" fill="#6A3E7A" transform="rotate(240.901)" />
            <path d="M -23.4 0 A 23.4 23.4 0 0 0 23.4 0 L 0 0 Z" fill="#EF6F6C" transform="rotate(262.592)" />
          </g>
          <g transform="translate(-19.5 -20.8) rotate(-28)">
            <ellipse cx="0" cy="0" rx="19.5" ry="11.7" fill="#fff9f3" />
          </g>
        </g>
      </g>
      <g id="motif-18" data-role="filler">
        <g transform="translate(926.86 50.347) rotate(376.059) scale(0.474)">
          <g>
            <path d="M 29.116 0 C 29.115 7.992, 28.824 18.939, 23.972 23.972 C 19.119 29.005, 7.424 30.767, 0 30.2 C -7.424 29.633, -14.858 25.603, -20.569 20.569 C -26.28 15.536, -34 7.121, -34.265 0 C -34.53 -7.121, -27.869 -17.094, -22.158 -22.158 C -16.447 -27.222, -7.689 -30.081, 0 -30.385 C 7.689 -30.688, 19.125 -29.042, 23.978 -23.978 C 28.831 -18.914, 29.117 -7.992, 29.116 0 Z" fill="#EF6F6C" />
            <path d="M 27.652 2.873 C 27.405 9.151, 21.925 17.106, 16.918 20.779 C 11.91 24.453, 3.862 26.033, -2.393 24.914 C -8.648 23.796, -17.956 19.426, -20.612 14.069 C -23.268 8.713, -21.233 -1.099, -18.331 -7.225 C -15.428 -13.351, -9.318 -21.076, -3.196 -22.688 C 2.926 -24.299, 13.259 -21.153, 18.4 -16.893 C 23.542 -12.633, 27.899 -3.406, 27.652 2.873 Z" fill="#EF6F6C" />
          </g>
          <g transform="translate(-11.212 -11.96) rotate(-28)">
            <ellipse cx="0" cy="0" rx="11.213" ry="6.728" fill="#fff9f3" />
          </g>
        </g>
      </g>
      <g id="motif-19" data-role="filler">
        <g transform="translate(1042.117 34.227) rotate(26.728) scale(0.281)">
          <g>
            <path d="M 32.574 0 C 33.23 7.743, 30.626 20.029, 25.197 25.197 C 19.768 30.365, 7.622 31.785, 0 31.008 C -7.622 30.231, -15.418 25.704, -20.536 20.536 C -25.653 15.368, -30.041 7.509, -30.705 0 C -31.368 -7.509, -29.634 -19.071, -24.517 -24.517 C -19.4 -29.963, -7.63 -33.216, 0 -32.674 C 7.63 -32.131, 15.832 -26.707, 21.261 -21.261 C 26.69 -15.816, 31.918 -7.743, 32.574 0 Z" fill="#EF6F6C" />
            <circle cx="-14.426" cy="-8.205" r="6.107" fill="#EF6F6C" />
          </g>
          <g transform="translate(-10.978 -11.71) rotate(-28)">
            <ellipse cx="0" cy="0" rx="10.978" ry="6.587" fill="#fff9f3" />
          </g>
        </g>
      </g>
      <g id="motif-20" data-role="filler">
        <g transform="translate(53.556 1326.563) rotate(184.087) scale(0.532)">
          <g>
            <path d="M -32.5 0 A 32.5 32.5 0 0 1 32.5 0 L 0 0 Z" fill="#6A3E7A" transform="rotate(129.276)" />
            <path d="M -23.4 0 A 23.4 23.4 0 0 1 23.4 0 L 0 0 Z" fill="#6A3E7A" transform="rotate(202.001)" />
          </g>
          <g transform="translate(-19.5 -20.8) rotate(-28)">
            <ellipse cx="0" cy="0" rx="19.5" ry="11.7" fill="#fff9f3" />
          </g>
        </g>
      </g>
      <g id="motif-21" data-role="filler">
        <g transform="translate(1086.171 898.111) rotate(102.543) scale(0.341)">
          <path d="M 26.146 0 C 25.829 7.037, 27.774 15.825, 24.208 20.313 C 20.642 24.802, 10.923 26.61, 4.749 26.931 C -1.426 27.251, -6.505 24.708, -12.838 22.237 C -19.171 19.765, -30.281 17.667, -33.249 12.102 C -36.217 6.537, -33.365 -4.248, -30.646 -11.154 C -27.928 -18.061, -22.921 -26.242, -16.939 -29.339 C -10.957 -32.437, -1.931 -30.978, 5.244 -29.74 C 12.419 -28.502, 22.629 -26.868, 26.113 -21.911 C 29.597 -16.955, 26.463 -7.037, 26.146 0 Z" fill="#6A3E7A" />
          <g transform="translate(-11.041 -11.777) rotate(-28)">
            <ellipse cx="0" cy="0" rx="11.041" ry="6.624" fill="#fff9f3" />
          </g>
        </g>
      </g>
      <g id="motif-22" data-role="filler">
        <g transform="translate(156.052 1063.002) rotate(179.297) scale(0.563)">
          <path d="M 29.611 0 C 29.351 5.562, 28.252 12.098, 25.183 16.184 C 22.113 20.27, 16.174 21.77, 11.195 24.513 C 6.215 27.257, 0.856 32.481, -4.694 32.647 C -10.244 32.813, -17.447 29.354, -22.104 25.51 C -26.762 21.666, -31.034 15.387, -32.637 9.583 C -34.24 3.779, -33.109 -3.04, -31.723 -9.315 C -30.337 -15.59, -28.878 -24.545, -24.32 -28.067 C -19.762 -31.589, -11.076 -29.331, -4.377 -30.445 C 2.321 -31.56, 10.684 -36.962, 15.871 -34.752 C 21.058 -32.543, 24.454 -22.98, 26.744 -17.187 C 29.034 -11.395, 29.871 -5.562, 29.611 0 Z" fill="#F7A072" />
          <g transform="translate(-11.629 -12.404) rotate(-28)">
            <ellipse cx="0" cy="0" rx="11.629" ry="6.977" fill="#fff9f3" />
          </g>
        </g>
      </g>
      <g id="motif-23" data-role="filler">
        <g transform="translate(331.996 278.756) rotate(219.978) scale(0.274)">
          <g>
            <path d="M 30.003 0 C 30.485 7.095, 30.808 16.804, 26.812 22.498 C 22.815 28.192, 13.112 33.377, 6.024 34.163 C -1.064 34.95, -9.764 31.113, -15.715 27.219 C -21.666 23.326, -27.122 17.224, -29.68 10.803 C -32.238 4.382, -33.379 -4.948, -31.064 -11.306 C -28.748 -17.664, -21.969 -23.538, -15.788 -27.346 C -9.607 -31.153, -0.596 -35.363, 6.022 -34.15 C 12.64 -32.938, 19.923 -25.763, 23.92 -20.071 C 27.916 -14.379, 29.521 -7.095, 30.003 0 Z" fill="#EF6F6C" />
            <path d="M 30.719 0.121 C 30.351 6.44, 23.326 13.557, 17.912 17.694 C 12.498 21.83, 4.209 26.116, -1.767 24.941 C -7.743 23.765, -15.062 16.618, -17.944 10.639 C -20.826 4.66, -21.7 -4.809, -19.058 -10.935 C -16.416 -17.06, -8.62 -24.568, -2.09 -26.116 C 4.44 -27.664, 14.653 -24.595, 20.121 -20.222 C 25.589 -15.85, 31.087 -6.199, 30.719 0.121 Z" fill="#EF6F6C" />
          </g>
          <g transform="translate(-11.212 -11.96) rotate(-28)">
            <ellipse cx="0" cy="0" rx="11.213" ry="6.728" fill="#fff9f3" />
          </g>
        </g>
      </g>
      <g id="motif-24" data-role="filler">
        <g transform="translate(335.608 1343.057) rotate(14.811) scale(0.402)">
          <g>
            <path d="M 34.497 0 C 34.222 7.492, 27.4 16.441, 21.65 21.65 C 15.9 26.858, 7.388 31.079, 0 31.251 C -7.388 31.423, -17.38 27.888, -22.68 22.68 C -27.98 17.471, -31.437 7.921, -31.798 0 C -32.159 -7.921, -30.144 -18.914, -24.844 -24.844 C -19.544 -30.774, -8.024 -35.838, 0 -35.581 C 8.024 -35.324, 17.552 -29.232, 23.302 -23.302 C 29.051 -17.372, 34.773 -7.492, 34.497 0 Z" fill="#EF6F6C" />
            <circle cx="-4.338" cy="-13.222" r="8.297" fill="#6A3E7A" />
          </g>
          <g transform="translate(-11.018 -11.752) rotate(-28)">
            <ellipse cx="0" cy="0" rx="11.018" ry="6.611" fill="#fff9f3" />
          </g>
        </g>
      </g>
      <g id="motif-25" data-role="filler">
        <g transform="translate(613.522 830.306) rotate(208.389) scale(0.298)">
          <g>
            <path d="M 18.457 11.47 C 18.453 12.837, 17.183 15.042, 15.855 15.531 C 14.528 16.021, 11.364 15.556, 10.494 14.406 C 9.624 13.257, 9.735 9.814, 10.633 8.634 C 11.531 7.454, 14.578 6.853, 15.882 7.326 C 17.186 7.799, 18.462 10.102, 18.457 11.47 Z" fill="#EF6F6C" />
            <path d="M 0.947 -14.199 C 0.945 -12.418, -1.886 -9.544, -3.908 -8.872 C -5.931 -8.2, -10.153 -8.736, -11.189 -10.167 C -12.225 -11.598, -11.34 -15.892, -10.124 -17.458 C -8.909 -19.023, -5.743 -20.102, -3.898 -19.559 C -2.053 -19.016, 0.948 -15.981, 0.947 -14.199 Z" fill="#F7A072" />
            <circle cx="-11.274" cy="-5.934" r="5.362" fill="#F7A072" />
            <path d="M 4.217 -2.467 C 4.3 -0.282, 1.863 4.082, -0.364 4.857 C -2.591 5.632, -7.776 4.109, -9.143 2.182 C -10.511 0.256, -9.949 -4.961, -8.57 -6.7 C -7.19 -8.439, -2.995 -8.958, -0.864 -8.252 C 1.267 -7.547, 4.134 -4.652, 4.217 -2.467 Z" fill="#EF6F6C" />
          </g>
          <g transform="translate(-10.237 -10.92) rotate(-28)">
            <ellipse cx="0" cy="0" rx="10.237" ry="6.143" fill="#fff9f3" />
          </g>
        </g>
      </g>
      <g id="motif-26" data-role="filler">
        <g transform="translate(254.116 516.651) rotate(311.068) scale(0.333)">
          <g>
            <path d="M 31.445 0 C 31.654 8.034, 26.209 19.981, 19.848 24.889 C 13.487 29.796, 1.763 31.101, -6.721 29.445 C -15.204 27.789, -27.889 21.924, -31.052 14.954 C -34.215 7.984, -29.757 -4.996, -25.697 -12.375 C -21.637 -19.754, -14.074 -27.495, -6.692 -29.319 C 0.69 -31.142, 12.239 -28.204, 18.595 -23.317 C 24.951 -18.431, 31.236 -8.034, 31.445 0 Z" fill="#EF6F6C" />
            <path d="M 25.102 3.812 C 24.97 10.385, 19.737 19.06, 14.509 23.037 C 9.281 27.013, -0.142 29.155, -6.267 27.67 C -12.392 26.185, -19.788 19.721, -22.24 14.127 C -24.691 8.533, -23.621 -0.117, -20.977 -5.894 C -18.334 -11.671, -12.425 -18.783, -6.379 -20.534 C -0.333 -22.285, 10.051 -20.459, 15.298 -16.401 C 20.545 -12.344, 25.233 -2.761, 25.102 3.812 Z" fill="#EF6F6C" />
          </g>
          <g transform="translate(-11.212 -11.96) rotate(-28)">
            <ellipse cx="0" cy="0" rx="11.213" ry="6.728" fill="#fff9f3" />
          </g>
        </g>
      </g>
      <g id="motif-27" data-role="filler">
        <g transform="translate(721.562 1177.526) rotate(175.014) scale(0.395)">
          <path d="M 33.519 0 C 33.434 6.866, 28.938 15.055, 24.291 20.383 C 19.644 25.71, 12.119 31.148, 5.637 31.966 C -0.846 32.784, -7.971 28.546, -14.601 25.29 C -21.231 22.033, -30.883 18.713, -34.142 12.426 C -37.4 6.14, -36.89 -5.244, -34.153 -12.431 C -31.416 -19.617, -24.421 -27.041, -17.72 -30.692 C -11.019 -34.343, -1.033 -35.985, 6.055 -34.338 C 13.142 -32.692, 20.226 -26.536, 24.804 -20.813 C 29.381 -15.09, 33.605 -6.866, 33.519 0 Z" fill="#F7A072" />
          <g transform="translate(-11.37 -12.128) rotate(-28)">
            <ellipse cx="0" cy="0" rx="11.37" ry="6.822" fill="#fff9f3" />
          </g>
        </g>
      </g>
      <g id="motif-28" data-role="filler">
        <g transform="translate(503.763 1121.57) rotate(389.491) scale(0.4)">
          <path d="M -32.5 0 Q -16.25 -14.797 0 0 Q 16.25 14.797 32.5 0" fill="none" stroke="#EF6F6C" stroke-width="5.85" stroke-linecap="round" />
          <g transform="translate(-10.627 -11.336) rotate(-28)">
            <ellipse cx="0" cy="0" rx="10.628" ry="6.376" fill="#fff9f3" />
          </g>
        </g>
      </g>
      <g id="motif-29" data-role="filler">
        <g transform="translate(825.625 337.825) rotate(64.872) scale(0.376)">
          <path d="M -32.5 0 Q -16.25 -10.302 0 0 Q 16.25 10.302 32.5 0" fill="none" stroke="#F7A072" stroke-width="5.85" stroke-linecap="round" />
          <g transform="translate(-10.627 -11.336) rotate(-28)">
            <ellipse cx="0" cy="0" rx="10.628" ry="6.376" fill="#fff9f3" />
          </g>
        </g>
      </g>
      <g id="motif-30" data-role="filler">
        <g transform="translate(704.686 191.372) rotate(40.99) scale(0.346)">
          <g>
            <path d="M 34.187 0 C 34.254 8.654, 27.872 20.646, 20.903 26.212 C 13.935 31.778, 0.931 35.324, -7.623 33.397 C -16.176 31.47, -27.206 22.374, -30.419 14.649 C -33.632 6.924, -30.725 -5.067, -26.898 -12.954 C -23.071 -20.84, -15.358 -30.546, -7.457 -32.672 C 0.443 -34.798, 13.563 -31.156, 20.504 -25.711 C 27.445 -20.266, 34.121 -8.654, 34.187 0 Z" fill="#F7A072" />
            <path d="M 25.434 3.13 C 25.599 7.671, 20.403 13.602, 16.916 17.111 C 13.43 20.62, 8.815 23.152, 4.515 24.186 C 0.215 25.22, -4.809 24.693, -8.886 23.318 C -12.963 21.942, -17.081 19.297, -19.947 15.932 C -22.813 12.568, -26.119 7.37, -26.081 3.13 C -26.043 -1.11, -22.264 -5.151, -19.721 -9.508 C -17.177 -13.864, -14.844 -21.65, -10.819 -23.008 C -6.794 -24.367, -0.029 -19.806, 4.429 -17.66 C 8.887 -15.514, 12.427 -13.597, 15.928 -10.132 C 19.429 -6.667, 25.27 -1.41, 25.434 3.13 Z" fill="#EF6F6C" />
            <path d="M 17.17 -3.508 C 17.34 0.064, 17.117 5.105, 14.986 7.636 C 12.854 10.167, 8.029 11.054, 4.382 11.679 C 0.736 12.304, -4.001 13.028, -6.895 11.387 C -9.789 9.747, -11.8 5.27, -12.979 1.837 C -14.158 -1.597, -15.08 -6.011, -13.967 -9.212 C -12.853 -12.412, -9.389 -15.596, -6.297 -17.367 C -3.205 -19.137, 1.207 -20.43, 4.584 -19.835 C 7.96 -19.24, 11.867 -16.517, 13.965 -13.795 C 16.063 -11.074, 17 -7.08, 17.17 -3.508 Z" fill="#2E2360" />
          </g>
          <g transform="translate(-11.212 -11.96) rotate(-28)">
            <ellipse cx="0" cy="0" rx="11.213" ry="6.728" fill="#fff9f3" />
          </g>
        </g>
      </g>
      <g id="motif-31" data-role="filler">
        <g transform="translate(712.416 22.427) rotate(53.858) scale(0.54)">
          <g>
            <path d="M 31.849 0 C 32.063 8.62, 27.679 21.817, 21.264 26.664 C 14.849 31.512, 1.592 31.272, -6.638 29.085 C -14.869 26.898, -24.174 20.82, -28.117 13.541 C -32.061 6.261, -33.856 -7.39, -30.298 -14.591 C -26.74 -21.791, -15.15 -27.917, -6.77 -29.662 C 1.61 -31.406, 13.546 -30.001, 19.983 -25.057 C 26.419 -20.114, 31.636 -8.62, 31.849 0 Z" fill="#6A3E7A" />
            <path d="M 23.599 3.863 C 23.731 8.544, 22.032 14.569, 19.187 18.194 C 16.342 21.82, 11.12 23.991, 6.529 25.614 C 1.937 27.238, -4.106 29.326, -8.361 27.936 C -12.616 26.547, -16.594 21.29, -19.003 17.277 C -21.411 13.265, -22.52 8.547, -22.813 3.863 C -23.105 -0.822, -23.24 -7.042, -20.758 -10.828 C -18.276 -14.614, -12.517 -17.526, -7.92 -18.854 C -3.323 -20.183, 2.438 -20.292, 6.824 -18.798 C 11.21 -17.305, 15.601 -13.671, 18.396 -9.895 C 21.192 -6.118, 23.467 -0.819, 23.599 3.863 Z" fill="#6A3E7A" />
            <path d="M 13.865 -0.616 C 13.814 3.663, 9.861 9.078, 6.234 12.031 C 2.608 14.983, -3.486 17.894, -7.895 17.1 C -12.303 16.306, -18.208 11.508, -20.215 7.264 C -22.221 3.021, -22.063 -4.43, -19.933 -8.36 C -17.803 -12.291, -11.846 -15.436, -7.435 -16.316 C -3.023 -17.196, 2.987 -16.258, 6.537 -13.642 C 10.087 -11.025, 13.915 -4.895, 13.865 -0.616 Z" fill="#EF6F6C" />
          </g>
          <g transform="translate(-11.212 -11.96) rotate(-28)">
            <ellipse cx="0" cy="0" rx="11.213" ry="6.728" fill="#fff9f3" />
          </g>
        </g>
      </g>
      <g id="motif-32" data-role="filler">
        <g transform="translate(1322.717 822.39) rotate(15.5) scale(0.287)">
          <g>
            <path d="M 32.709 0 C 32.817 7.294, 24.249 17.802, 17.774 22.287 C 11.298 26.773, 1.699 28.277, -6.143 26.912 C -13.985 25.548, -25.105 21.087, -29.278 14.099 C -33.451 7.112, -35.024 -8.13, -31.179 -15.015 C -27.335 -21.9, -14.262 -26.132, -6.21 -27.209 C 1.841 -28.287, 10.641 -26.013, 17.128 -21.478 C 23.615 -16.943, 32.602 -7.294, 32.709 0 Z" fill="#EF6F6C" />
            <circle cx="5.418" cy="-13.531" r="8.55" fill="#2E2360" />
          </g>
          <g transform="translate(-10.787 -11.506) rotate(-28)">
            <ellipse cx="0" cy="0" rx="10.787" ry="6.472" fill="#fff9f3" />
          </g>
        </g>
      </g>
      <g id="motif-33" data-role="filler">
        <g transform="translate(930.462 1229.075) rotate(38.625) scale(0.36)">
          <g>
            <path d="M 14.216 4.124 C 14.276 6.13, 12.511 10.192, 10.916 10.693 C 9.321 11.194, 5.729 8.752, 4.646 7.129 C 3.563 5.505, 3.434 2.366, 4.42 0.954 C 5.405 -0.457, 8.925 -1.87, 10.558 -1.342 C 12.191 -0.814, 14.157 2.118, 14.216 4.124 Z" fill="#EF6F6C" />
            <path d="M 10.426 7.539 C 10.444 8.936, 9.014 11.36, 7.576 11.888 C 6.138 12.417, 2.702 11.919, 1.799 10.709 C 0.897 9.5, 1.216 5.833, 2.162 4.632 C 3.108 3.432, 6.096 3.02, 7.473 3.505 C 8.851 3.989, 10.409 6.142, 10.426 7.539 Z" fill="#6A3E7A" />
            <circle cx="18.854" cy="-0.339" r="4.683" fill="#EF6F6C" />
            <circle cx="13.705" cy="-11.574" r="4.295" fill="#EF6F6C" />
            <circle cx="-0.302" cy="0.119" r="6.701" fill="#6A3E7A" />
          </g>
          <g transform="translate(-10.237 -10.92) rotate(-28)">
            <ellipse cx="0" cy="0" rx="10.237" ry="6.143" fill="#fff9f3" />
          </g>
        </g>
      </g>
      <g id="motif-34" data-role="filler">
        <g transform="translate(961.025 648.794) rotate(193.916) scale(0.471)">
          <path d="M 29.315 0 C 28.682 6.039, 26.438 12.169, 23.037 16.737 C 19.635 21.306, 14.53 24.708, 8.906 27.41 C 3.282 30.112, -4.843 34.337, -10.706 32.95 C -16.569 31.563, -22.543 24.579, -26.271 19.087 C -29.999 13.595, -32.87 6.512, -33.076 0 C -33.282 -6.512, -31.505 -15.324, -27.507 -19.985 C -23.509 -24.646, -15.387 -26.017, -9.087 -27.966 C -2.787 -29.914, 4.306 -33.089, 10.293 -31.677 C 16.279 -30.266, 23.664 -24.776, 26.835 -19.497 C 30.005 -14.217, 29.948 -6.039, 29.315 0 Z" fill="#F7A072" />
          <g transform="translate(-10.725 -11.44) rotate(-28)">
            <ellipse cx="0" cy="0" rx="10.725" ry="6.435" fill="#fff9f3" />
          </g>
        </g>
      </g>
      <g id="motif-35" data-role="filler">
        <g transform="translate(14.384 686.28) rotate(61.915) scale(0.447)">
          <g>
            <path d="M 35.956 0 C 35.972 7.687, 29.103 17.39, 23.11 23.11 C 17.118 28.831, 8.007 34.017, 0 34.321 C -8.007 34.625, -19.459 30.654, -24.934 24.934 C -30.409 19.214, -32.864 8.296, -32.848 0 C -32.832 -8.296, -30.314 -19.109, -24.84 -24.84 C -19.365 -30.571, -7.975 -34.69, 0 -34.385 C 7.975 -34.081, 17.018 -28.742, 23.011 -23.011 C 29.004 -17.28, 35.939 -7.687, 35.956 0 Z" fill="#6A3E7A" />
            <circle cx="-6.785" cy="7.599" r="6.481" fill="#EF6F6C" />
          </g>
          <g transform="translate(-11.035 -11.771) rotate(-28)">
            <ellipse cx="0" cy="0" rx="11.035" ry="6.621" fill="#fff9f3" />
          </g>
        </g>
        <g transform="translate(1414.384 686.28) rotate(61.915) scale(0.447)">
          <g>
            <path d="M 35.956 0 C 35.972 7.687, 29.103 17.39, 23.11 23.11 C 17.118 28.831, 8.007 34.017, 0 34.321 C -8.007 34.625, -19.459 30.654, -24.934 24.934 C -30.409 19.214, -32.864 8.296, -32.848 0 C -32.832 -8.296, -30.314 -19.109, -24.84 -24.84 C -19.365 -30.571, -7.975 -34.69, 0 -34.385 C 7.975 -34.081, 17.018 -28.742, 23.011 -23.011 C 29.004 -17.28, 35.939 -7.687, 35.956 0 Z" fill="#6A3E7A" />
            <circle cx="-6.785" cy="7.599" r="6.481" fill="#EF6F6C" />
          </g>
          <g transform="translate(-11.035 -11.771) rotate(-28)">
            <ellipse cx="0" cy="0" rx="11.035" ry="6.621" fill="#fff9f3" />
          </g>
        </g>
      </g>
      <g id="motif-36" data-role="filler">
        <g transform="translate(829.874 520.471) rotate(-2.997) scale(0.574)">
          <g>
            <path d="M 34.644 0 C 34.568 8.333, 30.544 19.077, 24.77 24.77 C 18.996 30.462, 8.274 34.137, 0 34.154 C -8.274 34.171, -19.067 30.564, -24.872 24.872 C -30.677 19.18, -34.936 8.186, -34.832 0 C -34.728 -8.186, -30.051 -18.757, -24.245 -24.245 C -18.44 -29.734, -8.245 -32.767, 0 -32.93 C 8.245 -33.094, 19.453 -30.715, 25.227 -25.227 C 31.001 -19.739, 34.721 -8.333, 34.644 0 Z" fill="#2E2360" />
            <path d="M 26.403 2.727 C 26.398 8.715, 24.675 16.88, 20.739 20.678 C 16.803 24.475, 8.786 25.5, 2.788 25.514 C -3.21 25.529, -10.968 24.562, -15.249 20.764 C -19.53 16.966, -23.126 8.509, -22.896 2.727 C -22.666 -3.056, -18.151 -9.564, -13.87 -13.931 C -9.589 -18.298, -2.985 -23.256, 2.788 -23.477 C 8.561 -23.697, 16.831 -19.619, 20.767 -15.252 C 24.702 -10.884, 26.408 -3.261, 26.403 2.727 Z" fill="#6A3E7A" />
          </g>
          <g transform="translate(-11.212 -11.96) rotate(-28)">
            <ellipse cx="0" cy="0" rx="11.213" ry="6.728" fill="#fff9f3" />
          </g>
        </g>
      </g>
      <g id="motif-37" data-role="filler">
        <g transform="translate(529.969 -9.714) rotate(289.43) scale(0.463)">
          <g>
            <path d="M 29.163 0 C 28.645 7.233, 25.005 15.662, 20.144 20.144 C 15.284 24.626, 7.503 26.102, 0 26.89 C -7.503 27.679, -19.157 29.356, -24.875 24.875 C -30.592 20.393, -34.272 8.325, -34.306 0 C -34.34 -8.325, -30.795 -20.383, -25.077 -25.077 C -19.36 -29.771, -8.055 -28.469, 0 -28.165 C 8.055 -27.861, 18.392 -27.946, 23.252 -23.252 C 28.112 -18.558, 29.681 -7.233, 29.163 0 Z" fill="#EF6F6C" />
            <circle cx="17.485" cy="0.319" r="7.239" fill="#6A3E7A" />
          </g>
          <g transform="translate(-11.079 -11.817) rotate(-28)">
            <ellipse cx="0" cy="0" rx="11.079" ry="6.647" fill="#fff9f3" />
          </g>
        </g>
        <g transform="translate(529.969 1390.286) rotate(289.43) scale(0.463)">
          <g>
            <path d="M 29.163 0 C 28.645 7.233, 25.005 15.662, 20.144 20.144 C 15.284 24.626, 7.503 26.102, 0 26.89 C -7.503 27.679, -19.157 29.356, -24.875 24.875 C -30.592 20.393, -34.272 8.325, -34.306 0 C -34.34 -8.325, -30.795 -20.383, -25.077 -25.077 C -19.36 -29.771, -8.055 -28.469, 0 -28.165 C 8.055 -27.861, 18.392 -27.946, 23.252 -23.252 C 28.112 -18.558, 29.681 -7.233, 29.163 0 Z" fill="#EF6F6C" />
            <circle cx="17.485" cy="0.319" r="7.239" fill="#6A3E7A" />
          </g>
          <g transform="translate(-11.079 -11.817) rotate(-28)">
            <ellipse cx="0" cy="0" rx="11.079" ry="6.647" fill="#fff9f3" />
          </g>
        </g>
      </g>
      <g id="motif-38" data-role="filler">
        <g transform="translate(10.76 100.842) rotate(239.926) scale(0.294)">
          <g>
            <path d="M -32.5 0 A 32.5 32.5 0 0 0 32.5 0 L 0 0 Z" fill="#F7A072" transform="rotate(216.911)" />
            <path d="M -23.4 0 A 23.4 23.4 0 0 1 23.4 0 L 0 0 Z" fill="#2E2360" transform="rotate(303.114)" />
          </g>
          <g transform="translate(-19.5 -20.8) rotate(-28)">
            <ellipse cx="0" cy="0" rx="19.5" ry="11.7" fill="#fff9f3" />
          </g>
        </g>
        <g transform="translate(1410.76 100.842) rotate(239.926) scale(0.294)">
          <g>
            <path d="M -32.5 0 A 32.5 32.5 0 0 0 32.5 0 L 0 0 Z" fill="#F7A072" transform="rotate(216.911)" />
            <path d="M -23.4 0 A 23.4 23.4 0 0 1 23.4 0 L 0 0 Z" fill="#2E2360" transform="rotate(303.114)" />
          </g>
          <g transform="translate(-19.5 -20.8) rotate(-28)">
            <ellipse cx="0" cy="0" rx="19.5" ry="11.7" fill="#fff9f3" />
          </g>
        </g>
      </g>
      <g id="motif-39" data-role="filler">
        <g transform="translate(686.185 912.422) rotate(72.299) scale(0.257)">
          <g>
            <circle cx="11.428" cy="-14.915" r="6.678" fill="#EF6F6C" />
            <path d="M 2.04 -8.375 C 1.948 -6.756, -0.138 -4.803, -1.558 -4.365 C -2.978 -3.927, -5.573 -4.574, -6.481 -5.744 C -7.389 -6.915, -7.92 -9.999, -7.008 -11.387 C -6.096 -12.776, -2.517 -14.576, -1.009 -14.074 C 0.499 -13.572, 2.132 -9.993, 2.04 -8.375 Z" fill="#EF6F6C" />
            <path d="M 2.394 -4.532 C 2.368 -2.303, -0.629 1.123, -2.954 1.912 C -5.28 2.7, -10.37 1.884, -11.56 0.199 C -12.75 -1.486, -11.556 -6.256, -10.096 -8.2 C -8.635 -10.143, -4.878 -12.071, -2.797 -11.46 C -0.715 -10.849, 2.42 -6.761, 2.394 -4.532 Z" fill="#EF6F6C" />
            <circle cx="1.152" cy="-7.912" r="5.206" fill="#6A3E7A" />
            <circle cx="10.256" cy="6.698" r="4.186" fill="#EF6F6C" />
          </g>
          <g transform="translate(-10.237 -10.92) rotate(-28)">
            <ellipse cx="0" cy="0" rx="10.237" ry="6.143" fill="#fff9f3" />
          </g>
        </g>
      </g>
      <g id="motif-40" data-role="filler">
        <g transform="translate(884.367 1101.184) rotate(98.441) scale(0.344)">
          <path d="M -32.5 0 Q -16.25 -14.497 0 0 Q 16.25 14.497 32.5 0" fill="none" stroke="#EF6F6C" stroke-width="5.85" stroke-linecap="round" />
          <g transform="translate(-10.627 -11.336) rotate(-28)">
            <ellipse cx="0" cy="0" rx="10.628" ry="6.376" fill="#fff9f3" />
          </g>
        </g>
      </g>
      <g id="motif-41" data-role="filler">
        <g transform="translate(1085.933 1086.702) rotate(0.697) scale(0.37)">
          <g>
            <circle cx="16.369" cy="-8.731" r="4.252" fill="#EF6F6C" />
            <path d="M 9.609 5.51 C 9.603 7.148, 8.066 9.74, 6.399 10.372 C 4.732 11.003, 0.631 10.663, -0.395 9.299 C -1.42 7.935, -0.893 3.646, 0.245 2.187 C 1.383 0.728, 4.872 -0.009, 6.433 0.545 C 7.994 1.099, 9.615 3.873, 9.609 5.51 Z" fill="#EF6F6C" />
            <path d="M 0.499 1.903 C 0.47 3.755, -1.355 6.684, -2.914 7.195 C -4.474 7.706, -7.886 6.349, -8.856 4.971 C -9.826 3.593, -9.753 0.406, -8.734 -1.076 C -7.715 -2.557, -4.282 -4.413, -2.743 -3.916 C -1.204 -3.42, 0.528 0.051, 0.499 1.903 Z" fill="#6A3E7A" />
          </g>
          <g transform="translate(-10.237 -10.92) rotate(-28)">
            <ellipse cx="0" cy="0" rx="10.237" ry="6.143" fill="#fff9f3" />
          </g>
        </g>
      </g>
      <g id="motif-42" data-role="filler">
        <g transform="translate(378.827 946.271) rotate(170.031) scale(0.446)">
          <path d="M -32.5 0 Q -16.25 -14.409 0 0 Q 16.25 14.409 32.5 0" fill="none" stroke="#6A3E7A" stroke-width="5.85" stroke-linecap="round" />
          <g transform="translate(-10.627 -11.336) rotate(-28)">
            <ellipse cx="0" cy="0" rx="10.628" ry="6.376" fill="#fff9f3" />
          </g>
        </g>
      </g>
      <g id="motif-43" data-role="filler">
        <g transform="translate(964.07 804.065) rotate(104.035) scale(0.335)">
          <path d="M -32.5 0 Q -16.25 -11.11 0 0 Q 16.25 11.11 32.5 0" fill="none" stroke="#6A3E7A" stroke-width="5.85" stroke-linecap="round" />
          <g transform="translate(-10.627 -11.336) rotate(-28)">
            <ellipse cx="0" cy="0" rx="10.628" ry="6.376" fill="#fff9f3" />
          </g>
        </g>
      </g>
      <g id="motif-44" data-role="filler">
        <g transform="translate(1016.286 146.484) rotate(114.803) scale(0.425)">
          <g>
            <circle cx="17.388" cy="3.168" r="6.5" fill="#EF6F6C" />
            <path d="M -1.565 15.477 C -1.54 17.446, -4.899 21.022, -6.947 21.616 C -8.994 22.211, -12.392 20.882, -13.849 19.042 C -15.306 17.202, -16.813 12.116, -15.687 10.576 C -14.562 9.035, -9.45 8.982, -7.097 9.798 C -4.743 10.615, -1.59 13.507, -1.565 15.477 Z" fill="#6A3E7A" />
            <path d="M 11.703 -2.378 C 11.753 -0.926, 9.945 1.933, 8.444 2.44 C 6.943 2.946, 3.676 1.983, 2.698 0.659 C 1.72 -0.665, 1.667 -4.35, 2.575 -5.505 C 3.483 -6.66, 6.622 -6.793, 8.144 -6.272 C 9.665 -5.751, 11.653 -3.83, 11.703 -2.378 Z" fill="#F7A072" />
          </g>
          <g transform="translate(-10.237 -10.92) rotate(-28)">
            <ellipse cx="0" cy="0" rx="10.237" ry="6.143" fill="#fff9f3" />
          </g>
        </g>
      </g>
      <g id="motif-45" data-role="filler">
        <g transform="translate(503.619 179.317) rotate(195.369) scale(0.34)">
          <path d="M -32.5 0 Q -16.25 -15.85 0 0 Q 16.25 15.85 32.5 0" fill="none" stroke="#2E2360" stroke-width="5.85" stroke-linecap="round" />
          <g transform="translate(-10.627 -11.336) rotate(-28)">
            <ellipse cx="0" cy="0" rx="10.628" ry="6.376" fill="#fff9f3" />
          </g>
        </g>
      </g>
      <g id="motif-46" data-role="filler">
        <g transform="translate(972.199 884.202) rotate(233.817) scale(0.528)">
          <g>
            <path d="M 28.932 0 C 28.965 9.028, 22.972 23.076, 15.737 27.257 C 8.501 31.437, -6.738 29.626, -14.482 25.084 C -22.226 20.541, -30.42 8.897, -30.73 0 C -31.039 -8.897, -24.05 -23.816, -16.339 -28.301 C -8.628 -32.786, 7.991 -31.627, 15.536 -26.91 C 23.082 -22.193, 28.898 -9.028, 28.932 0 Z" fill="#F7A072" />
            <circle cx="17.156" cy="-2.745" r="6.693" fill="#EF6F6C" />
          </g>
          <g transform="translate(-10.725 -11.44) rotate(-28)">
            <ellipse cx="0" cy="0" rx="10.725" ry="6.435" fill="#fff9f3" />
          </g>
        </g>
      </g>
      <g id="motif-47" data-role="filler">
        <g transform="translate(829.785 227.61) rotate(298.876) scale(0.273)">
          <g>
            <path d="M 34.307 0 C 34.652 9.024, 24.823 24.641, 16.666 28.866 C 8.509 33.091, -6.602 30.162, -14.636 25.351 C -22.67 20.54, -31.074 9.255, -31.538 0 C -32.003 -9.255, -25.112 -25.965, -17.424 -30.179 C -9.735 -34.392, 5.973 -30.308, 14.595 -25.278 C 23.216 -20.249, 33.962 -9.024, 34.307 0 Z" fill="#6A3E7A" />
            <circle cx="9.607" cy="-3.978" r="7.949" fill="#6A3E7A" />
          </g>
          <g transform="translate(-10.837 -11.559) rotate(-28)">
            <ellipse cx="0" cy="0" rx="10.837" ry="6.502" fill="#fff9f3" />
          </g>
        </g>
      </g>
      <g id="motif-48" data-role="filler">
        <g transform="translate(444.032 869.407) rotate(12.844) scale(0.25)">
          <g>
            <path d="M 33.094 0 C 33.29 9.284, 29.363 24.005, 22.8 28.591 C 16.238 33.177, 1.864 30.188, -6.28 27.514 C -14.424 24.841, -21.955 19.618, -26.062 12.551 C -30.169 5.483, -34.017 -7.328, -30.922 -14.891 C -27.828 -22.455, -16.251 -30.794, -7.494 -32.831 C 1.264 -34.869, 14.858 -32.586, 21.623 -27.114 C 28.387 -21.642, 32.898 -9.284, 33.094 0 Z" fill="#EF6F6C" />
            <path d="M 28.25 2.208 C 28.147 8.249, 25.2 16.139, 21.028 20.021 C 16.855 23.903, 8.858 25.794, 3.215 25.5 C -2.428 25.205, -8.434 22.136, -12.831 18.254 C -17.228 14.372, -22.694 8.03, -23.168 2.208 C -23.642 -3.614, -20.07 -12.447, -15.673 -16.68 C -11.276 -20.912, -3.005 -23.264, 3.215 -23.188 C 9.435 -23.111, 17.473 -20.456, 21.646 -16.223 C 25.818 -11.99, 28.353 -3.833, 28.25 2.208 Z" fill="#6A3E7A" />
          </g>
          <g transform="translate(-11.378 -12.137) rotate(-28)">
            <ellipse cx="0" cy="0" rx="11.378" ry="6.827" fill="#fff9f3" />
          </g>
        </g>
      </g>
      <g id="motif-49" data-role="filler">
        <g transform="translate(869.212 378.695) rotate(219.265) scale(0.282)">
          <g>
            <path d="M 29.796 0 C 30.021 8.558, 27.248 21.561, 21.15 26.521 C 15.052 31.481, 1.319 31.972, -6.793 29.76 C -14.904 27.549, -23.938 20.48, -27.517 13.252 C -31.096 6.023, -31.627 -6.029, -28.268 -13.613 C -24.908 -21.196, -15.372 -30.38, -7.361 -32.249 C 0.65 -34.118, 13.606 -30.201, 19.798 -24.827 C 25.991 -19.452, 29.57 -8.558, 29.796 0 Z" fill="#6A3E7A" />
            <path d="M 29.891 2.723 C 30.032 7.909, 27.885 14.712, 24.627 18.587 C 21.37 22.463, 15.324 24.503, 10.347 25.976 C 5.37 27.449, -0.617 28.86, -5.234 27.424 C -9.851 25.988, -14.554 21.477, -17.355 17.36 C -20.155 13.244, -22.326 7.391, -22.036 2.723 C -21.746 -1.945, -18.352 -6.344, -15.612 -10.648 C -12.873 -14.953, -10.055 -21.061, -5.6 -23.103 C -1.144 -25.145, 6.222 -24.665, 11.118 -22.903 C 16.015 -21.14, 20.651 -16.797, 23.78 -12.526 C 26.909 -8.255, 29.75 -2.462, 29.891 2.723 Z" fill="#6A3E7A" />
          </g>
          <g transform="translate(-11.212 -11.96) rotate(-28)">
            <ellipse cx="0" cy="0" rx="11.213" ry="6.728" fill="#fff9f3" />
          </g>
        </g>
      </g>
      <g id="motif-50" data-role="filler">
        <g transform="translate(412.946 396.76) rotate(59.195) scale(0.425)">
          <g>
            <circle cx="-5.187" cy="-4.5" r="5.421" fill="#6A3E7A" />
            <circle cx="-3.561" cy="2.532" r="5.312" fill="#6A3E7A" />
            <path d="M 14.906 -4.992 C 14.938 -3.862, 13.624 -1.629, 12.585 -1.3 C 11.545 -0.972, 9.411 -2.011, 8.67 -3.019 C 7.93 -4.027, 7.523 -6.504, 8.143 -7.348 C 8.762 -8.191, 11.261 -8.472, 12.389 -8.08 C 13.516 -7.687, 14.873 -6.122, 14.906 -4.992 Z" fill="#EF6F6C" />
          </g>
          <g transform="translate(-10.237 -10.92) rotate(-28)">
            <ellipse cx="0" cy="0" rx="10.237" ry="6.143" fill="#fff9f3" />
          </g>
        </g>
      </g>
      <g id="motif-51" data-role="filler">
        <g transform="translate(592.934 122.432) rotate(256.997) scale(0.482)">
          <g>
            <path d="M -32.5 0 A 32.5 32.5 0 0 1 32.5 0 L 0 0 Z" fill="#EF6F6C" transform="rotate(308.248)" />
            <path d="M -23.4 0 A 23.4 23.4 0 0 0 23.4 0 L 0 0 Z" fill="#EF6F6C" transform="rotate(335.489)" />
            <path d="M -14.3 0 A 14.3 14.3 0 0 0 14.3 0 L 0 0 Z" fill="#EF6F6C" transform="rotate(62.468)" />
          </g>
          <g transform="translate(-19.5 -20.8) rotate(-28)">
            <ellipse cx="0" cy="0" rx="19.5" ry="11.7" fill="#fff9f3" />
          </g>
        </g>
      </g>
      <g id="motif-52" data-role="filler">
        <g transform="translate(1209.06 770.024) rotate(280.805) scale(0.518)">
          <g>
            <path d="M 36.233 0 C 36.743 8.246, 32.307 21.323, 26.268 26.268 C 20.229 31.214, 8.894 29.534, 0 29.672 C -8.894 29.81, -22.567 32.042, -27.097 27.097 C -31.627 22.152, -28.415 7.799, -27.181 0 C -25.948 -7.799, -24.225 -14.258, -19.695 -19.695 C -15.165 -25.132, -7.151 -32.036, 0 -32.622 C 7.151 -33.207, 17.17 -28.645, 23.208 -23.208 C 29.247 -17.771, 35.723 -8.246, 36.233 0 Z" fill="#6A3E7A" />
            <circle cx="13.573" cy="3.689" r="7.799" fill="#2E2360" />
          </g>
          <g transform="translate(-11.757 -12.541) rotate(-28)">
            <ellipse cx="0" cy="0" rx="11.757" ry="7.054" fill="#fff9f3" />
          </g>
        </g>
      </g>
      <g id="motif-53" data-role="filler">
        <g transform="translate(302.759 1105.642) rotate(99.026) scale(0.378)">
          <g>
            <path d="M -32.5 0 A 32.5 32.5 0 0 1 32.5 0 L 0 0 Z" fill="#6A3E7A" transform="rotate(348.442)" />
            <path d="M -23.4 0 A 23.4 23.4 0 0 1 23.4 0 L 0 0 Z" fill="#6A3E7A" transform="rotate(25.24)" />
          </g>
          <g transform="translate(-19.5 -20.8) rotate(-28)">
            <ellipse cx="0" cy="0" rx="19.5" ry="11.7" fill="#fff9f3" />
          </g>
        </g>
      </g>
      <g id="motif-54" data-role="filler">
        <g transform="translate(1158.341 145.19) rotate(305.649) scale(0.495)">
          <g>
            <path d="M 28.774 0 C 29.115 7.444, 28.151 17.951, 23.355 23.355 C 18.559 28.758, 8.153 32.052, 0 32.42 C -8.153 32.789, -20.081 30.969, -25.566 25.566 C -31.051 20.163, -32.907 8.526, -32.912 0 C -32.916 -8.526, -31.077 -20.065, -25.592 -25.592 C -20.107 -31.118, -7.817 -33.874, 0 -33.16 C 7.817 -32.447, 16.515 -26.837, 21.311 -21.311 C 26.106 -15.784, 28.434 -7.444, 28.774 0 Z" fill="#EF6F6C" />
            <path d="M 21.688 -2.015 C 21.545 4.414, 16.66 12.891, 11.612 16.733 C 6.564 20.575, -2.318 22.336, -8.6 21.036 C -14.883 19.737, -23.513 14.44, -26.084 8.938 C -28.654 3.436, -26.935 -6.298, -24.023 -11.976 C -21.112 -17.654, -14.698 -23.488, -8.615 -25.132 C -2.533 -26.776, 7.42 -25.692, 12.47 -21.84 C 17.521 -17.987, 21.831 -8.444, 21.688 -2.015 Z" fill="#6A3E7A" />
          </g>
          <g transform="translate(-11.212 -11.96) rotate(-28)">
            <ellipse cx="0" cy="0" rx="11.213" ry="6.728" fill="#fff9f3" />
          </g>
        </g>
      </g>
      <g id="motif-55" data-role="filler">
        <g transform="translate(1281.318 128.12) rotate(154.359) scale(0.425)">
          <path d="M -32.5 0 Q -16.25 -17.351 0 0 Q 16.25 17.351 32.5 0" fill="none" stroke="#6A3E7A" stroke-width="5.85" stroke-linecap="round" />
          <g transform="translate(-10.627 -11.336) rotate(-28)">
            <ellipse cx="0" cy="0" rx="10.628" ry="6.376" fill="#fff9f3" />
          </g>
        </g>
      </g>
      <g id="motif-56" data-role="filler">
        <g transform="translate(1354.975 328.852) rotate(305.242) scale(0.496)">
          <g>
            <path d="M -32.5 0 A 32.5 32.5 0 0 1 32.5 0 L 0 0 Z" fill="#EF6F6C" transform="rotate(77.518)" />
            <path d="M -23.4 0 A 23.4 23.4 0 0 0 23.4 0 L 0 0 Z" fill="#EF6F6C" transform="rotate(262.79)" />
            <path d="M -14.3 0 A 14.3 14.3 0 0 1 14.3 0 L 0 0 Z" fill="#EF6F6C" transform="rotate(270.176)" />
          </g>
          <g transform="translate(-19.5 -20.8) rotate(-28)">
            <ellipse cx="0" cy="0" rx="19.5" ry="11.7" fill="#fff9f3" />
          </g>
        </g>
      </g>
      <g id="motif-57" data-role="filler">
        <g transform="translate(1112.023 252.253) rotate(242.084) scale(0.378)">
          <g>
            <path d="M 32.661 0 C 32.75 7.945, 29.547 18.694, 24.103 24.103 C 18.66 29.512, 7.882 32.608, 0 32.455 C -7.882 32.302, -18.273 28.595, -23.186 23.186 C -28.1 17.777, -29.112 8.097, -29.48 0 C -29.849 -8.097, -30.312 -20.391, -25.398 -25.398 C -20.485 -30.406, -8.161 -30.349, 0 -30.044 C 8.161 -29.739, 18.126 -28.577, 23.57 -23.57 C 29.013 -18.562, 32.572 -7.945, 32.661 0 Z" fill="#EF6F6C" />
            <path d="M 27.927 0.802 C 28.396 7.147, 25.272 17.854, 20.399 21.596 C 15.527 25.339, 5.185 24.927, -1.309 23.258 C -7.802 21.588, -15.541 17.188, -18.562 11.579 C -21.583 5.97, -22.367 -5.104, -19.435 -10.395 C -16.503 -15.687, -7.141 -19.158, -0.97 -20.17 C 5.201 -21.182, 12.774 -19.965, 17.59 -16.47 C 22.407 -12.974, 27.459 -5.542, 27.927 0.802 Z" fill="#EF6F6C" />
            <path d="M 15.931 2.543 C 15.955 6.45, 11.983 11.86, 8.835 14.335 C 5.687 16.81, 1.027 17.343, -2.957 17.396 C -6.94 17.449, -11.994 17.129, -15.067 14.654 C -18.141 12.178, -21.352 6.626, -21.398 2.543 C -21.443 -1.539, -18.413 -6.704, -15.34 -9.84 C -12.266 -12.975, -6.962 -16.394, -2.957 -16.272 C 1.049 -16.15, 5.544 -12.242, 8.692 -9.106 C 11.84 -5.97, 15.908 -1.364, 15.931 2.543 Z" fill="#6A3E7A" />
          </g>
          <g transform="translate(-11.212 -11.96) rotate(-28)">
            <ellipse cx="0" cy="0" rx="11.213" ry="6.728" fill="#fff9f3" />
          </g>
        </g>
      </g>
      <g id="motif-58" data-role="filler">
        <g transform="translate(606.533 996.394) rotate(207.731) scale(0.516)">
          <g>
            <path d="M 29.862 0 C 29.502 8.98, 22.253 20.212, 14.473 25.067 C 6.692 29.923, -9.227 33.311, -16.82 29.133 C -24.413 24.955, -31.25 9.424, -31.084 0 C -30.919 -9.424, -23.779 -22.61, -15.826 -27.412 C -7.873 -32.214, 9.019 -33.378, 16.633 -28.81 C 24.248 -24.241, 30.222 -8.98, 29.862 0 Z" fill="#EF6F6C" />
            <circle cx="-8.03" cy="7.492" r="8.874" fill="#EF6F6C" />
          </g>
          <g transform="translate(-10.725 -11.44) rotate(-28)">
            <ellipse cx="0" cy="0" rx="10.725" ry="6.435" fill="#fff9f3" />
          </g>
        </g>
      </g>
      <g id="motif-59" data-role="filler">
        <g transform="translate(540.16 341.732) rotate(75.947) scale(0.553)">
          <path d="M 33.895 0 C 33.382 5.814, 28.853 11.199, 25.604 16.455 C 22.355 21.71, 19.31 29.8, 14.4 31.531 C 9.489 33.262, 1.714 28.435, -3.859 26.842 C -9.433 25.25, -13.701 24.693, -19.043 21.977 C -24.385 19.26, -33.937 15.719, -35.911 10.544 C -37.885 5.37, -33.378 -3.279, -30.887 -9.069 C -28.396 -14.86, -25.33 -20.247, -20.967 -24.198 C -16.605 -28.149, -10.48 -31.832, -4.712 -32.776 C 1.055 -33.719, 8.071 -32.25, 13.636 -29.859 C 19.202 -27.469, 25.303 -23.407, 28.679 -18.431 C 32.055 -13.454, 34.407 -5.814, 33.895 0 Z" fill="#6A3E7A" />
          <g transform="translate(-11.479 -12.244) rotate(-28)">
            <ellipse cx="0" cy="0" rx="11.479" ry="6.887" fill="#fff9f3" />
          </g>
        </g>
      </g>
      <g id="motif-60" data-role="filler">
        <g transform="translate(386.502 92.441) rotate(294.117) scale(0.572)">
          <g>
            <path d="M 32.463 0 C 32.196 9, 27.376 20.586, 20.731 25.996 C 14.086 31.405, 0.621 34.586, -7.408 32.456 C -15.437 30.326, -23.513 21.112, -27.443 13.216 C -31.373 5.319, -34.292 -7.157, -30.988 -14.923 C -27.684 -22.689, -16.505 -31.2, -7.619 -33.38 C 1.268 -35.56, 15.652 -33.568, 22.333 -28.004 C 29.013 -22.441, 32.73 -9, 32.463 0 Z" fill="#EF6F6C" />
            <circle cx="2.711" cy="10.771" r="9.095" fill="#2E2360" />
          </g>
          <g transform="translate(-11.111 -11.852) rotate(-28)">
            <ellipse cx="0" cy="0" rx="11.111" ry="6.667" fill="#fff9f3" />
          </g>
        </g>
      </g>
      <g id="motif-61" data-role="filler">
        <g transform="translate(913.163 458.795) rotate(73.305) scale(0.465)">
          <g>
            <path d="M 35.353 0 C 35.414 7.093, 27.352 16.061, 21.46 21.46 C 15.568 26.86, 7.319 32.231, 0 32.396 C -7.319 32.562, -17.067 27.853, -22.453 22.453 C -27.84 17.054, -31.963 7.84, -32.318 0 C -32.674 -7.84, -29.972 -19.361, -24.585 -24.585 C -19.199 -29.809, -7.614 -31.923, 0 -31.342 C 7.614 -30.761, 15.207 -26.323, 21.099 -21.099 C 26.991 -15.875, 35.293 -7.093, 35.353 0 Z" fill="#EF6F6C" />
            <circle cx="-11.307" cy="11.154" r="6.461" fill="#6A3E7A" />
          </g>
          <g transform="translate(-10.835 -11.558) rotate(-28)">
            <ellipse cx="0" cy="0" rx="10.835" ry="6.501" fill="#fff9f3" />
          </g>
        </g>
      </g>
      <g id="motif-62" data-role="filler">
        <g transform="translate(254.091 70.695) rotate(63.638) scale(0.465)">
          <path d="M -32.5 0 Q -16.25 -15.01 0 0 Q 16.25 15.01 32.5 0" fill="none" stroke="#EF6F6C" stroke-width="5.85" stroke-linecap="round" />
          <g transform="translate(-10.627 -11.336) rotate(-28)">
            <ellipse cx="0" cy="0" rx="10.628" ry="6.376" fill="#fff9f3" />
          </g>
        </g>
      </g>
      <g id="motif-63" data-role="filler">
        <g transform="translate(789.691 112.276) rotate(122.658) scale(0.302)">
          <g>
            <path d="M 29.166 0 C 28.866 6.767, 27.304 14.731, 23.292 19.544 C 19.279 24.357, 11.382 27.963, 5.092 28.877 C -1.198 29.79, -8.782 28.083, -14.448 25.024 C -20.114 21.965, -26.571 16.416, -28.904 10.52 C -31.237 4.624, -30.352 -3.558, -28.445 -10.353 C -26.538 -17.148, -23.215 -26.249, -17.464 -30.249 C -11.714 -34.249, -1.036 -35.884, 6.057 -34.352 C 13.15 -32.819, 21.241 -26.78, 25.093 -21.055 C 28.944 -15.33, 29.466 -6.767, 29.166 0 Z" fill="#2E2360" />
            <path d="M 22.312 2.76 C 22.264 8.124, 17.37 14.955, 13.192 18.708 C 9.015 22.46, 2.867 24.969, -2.755 25.275 C -8.378 25.582, -16.466 24.299, -20.542 20.547 C -24.618 16.794, -27 8.902, -27.212 2.76 C -27.425 -3.382, -25.895 -12.574, -21.819 -16.303 C -17.743 -20.033, -8.639 -20.09, -2.755 -19.618 C 3.128 -19.147, 9.302 -17.205, 13.479 -13.475 C 17.657 -9.745, 22.36 -2.604, 22.312 2.76 Z" fill="#EF6F6C" />
          </g>
          <g transform="translate(-11.212 -11.96) rotate(-28)">
            <ellipse cx="0" cy="0" rx="11.213" ry="6.728" fill="#fff9f3" />
          </g>
        </g>
      </g>
      <g id="motif-64" data-role="filler">
        <g transform="translate(684.367 314.472) rotate(292.749) scale(0.463)">
          <g>
            <path d="M -32.5 0 A 32.5 32.5 0 0 1 32.5 0 L 0 0 Z" fill="#6A3E7A" transform="rotate(41.972)" />
            <path d="M -23.4 0 A 23.4 23.4 0 0 1 23.4 0 L 0 0 Z" fill="#6A3E7A" transform="rotate(63.658)" />
          </g>
          <g transform="translate(-19.5 -20.8) rotate(-28)">
            <ellipse cx="0" cy="0" rx="19.5" ry="11.7" fill="#fff9f3" />
          </g>
        </g>
      </g>
      <g id="motif-65" data-role="filler">
        <g transform="translate(150.593 922.552) rotate(126.101) scale(0.499)">
          <path d="M 32.616 0 C 33.163 6.685, 33.243 16.815, 29.248 21.25 C 25.253 25.685, 14.957 25.73, 8.646 26.609 C 2.335 27.488, -2.259 27.385, -8.618 26.523 C -14.977 25.662, -25.532 25.86, -29.508 21.439 C -33.485 17.019, -33.436 6.449, -32.475 0 C -31.515 -6.449, -27.204 -11.236, -23.747 -17.253 C -20.289 -23.27, -17.424 -33.636, -11.731 -36.103 C -6.037 -38.57, 4.133 -34.928, 10.415 -32.055 C 16.697 -29.181, 22.262 -24.205, 25.962 -18.863 C 29.662 -13.52, 32.068 -6.685, 32.616 0 Z" fill="#6A3E7A" />
          <g transform="translate(-11.712 -12.493) rotate(-28)">
            <ellipse cx="0" cy="0" rx="11.712" ry="7.027" fill="#fff9f3" />
          </g>
        </g>
      </g>
      <g id="motif-66" data-role="filler">
        <g transform="translate(98.03 537.513) rotate(321.908) scale(0.378)">
          <g>
            <path d="M -32.5 0 A 32.5 32.5 0 0 0 32.5 0 L 0 0 Z" fill="#6A3E7A" transform="rotate(46.723)" />
            <path d="M -23.4 0 A 23.4 23.4 0 0 1 23.4 0 L 0 0 Z" fill="#EF6F6C" transform="rotate(95.093)" />
            <path d="M -14.3 0 A 14.3 14.3 0 0 0 14.3 0 L 0 0 Z" fill="#6A3E7A" transform="rotate(73.397)" />
          </g>
          <g transform="translate(-19.5 -20.8) rotate(-28)">
            <ellipse cx="0" cy="0" rx="19.5" ry="11.7" fill="#fff9f3" />
          </g>
        </g>
      </g>
      <g id="motif-67" data-role="filler">
        <g transform="translate(534.389 868.348) rotate(103.55) scale(0.295)">
          <path d="M -32.5 0 Q -16.25 -15.9 0 0 Q 16.25 15.9 32.5 0" fill="none" stroke="#6A3E7A" stroke-width="5.85" stroke-linecap="round" />
          <g transform="translate(-10.627 -11.336) rotate(-28)">
            <ellipse cx="0" cy="0" rx="10.628" ry="6.376" fill="#fff9f3" />
          </g>
        </g>
      </g>
      <g id="motif-68" data-role="filler">
        <g transform="translate(1088.19 719.738) rotate(248.867) scale(0.334)">
          <g>
            <path d="M 34.433 0 C 34.402 6.526, 28.069 14.334, 23.241 19.502 C 18.413 24.669, 12.069 29.528, 5.467 31.004 C -1.135 32.479, -10.354 31.665, -16.371 28.356 C -22.389 25.048, -28.515 17.644, -30.639 11.152 C -32.762 4.66, -31.295 -3.674, -29.112 -10.596 C -26.929 -17.518, -23.32 -26.888, -17.541 -30.382 C -11.761 -33.875, -1.263 -33.346, 5.565 -31.558 C 12.392 -29.771, 18.615 -24.917, 23.426 -19.657 C 28.238 -14.397, 34.463 -6.526, 34.433 0 Z" fill="#6A3E7A" />
            <path d="M 25.651 -3.855 C 25.441 2.131, 21.109 9.255, 16.735 13.474 C 12.361 17.693, 5.114 21.526, -0.594 21.457 C -6.301 21.388, -13.454 17.28, -17.509 13.061 C -21.564 8.842, -24.639 2.069, -24.924 -3.855 C -25.21 -9.778, -23.276 -18.15, -19.221 -22.482 C -15.166 -26.814, -6.796 -29.853, -0.594 -29.846 C 5.609 -29.839, 13.619 -26.773, 17.993 -22.441 C 22.367 -18.109, 25.86 -9.84, 25.651 -3.855 Z" fill="#6A3E7A" />
          </g>
          <g transform="translate(-11.212 -11.96) rotate(-28)">
            <ellipse cx="0" cy="0" rx="11.213" ry="6.728" fill="#fff9f3" />
          </g>
        </g>
      </g>
      <g id="motif-69" data-role="filler">
        <g transform="translate(308.064 169.104) rotate(91.673) scale(0.518)">
          <path d="M -32.5 0 Q -16.25 -10.579 0 0 Q 16.25 10.579 32.5 0" fill="none" stroke="#6A3E7A" stroke-width="5.85" stroke-linecap="round" />
          <g transform="translate(-10.627 -11.336) rotate(-28)">
            <ellipse cx="0" cy="0" rx="10.628" ry="6.376" fill="#fff9f3" />
          </g>
        </g>
      </g>
      <g id="motif-70" data-role="filler">
        <g transform="translate(603.939 204.331) rotate(48.064) scale(0.476)">
          <g>
            <path d="M 30.087 0 C 30.573 7.458, 28.846 18.127, 23.832 23.832 C 18.817 29.537, 8.217 33.958, 0 34.23 C -8.217 34.503, -20.426 31.173, -25.468 25.468 C -30.51 19.763, -30.856 7.884, -30.251 0 C -29.646 -7.884, -26.88 -16.772, -21.838 -21.838 C -16.797 -26.904, -7.126 -30.55, 0 -30.396 C 7.126 -30.243, 15.902 -25.982, 20.916 -20.916 C 25.931 -15.85, 29.601 -7.458, 30.087 0 Z" fill="#F7A072" />
            <circle cx="-0.142" cy="-13.255" r="6.727" fill="#6A3E7A" />
          </g>
          <g transform="translate(-11.181 -11.926) rotate(-28)">
            <ellipse cx="0" cy="0" rx="11.181" ry="6.708" fill="#fff9f3" />
          </g>
        </g>
      </g>
      <g id="motif-71" data-role="filler">
        <g transform="translate(1192.395 903.099) rotate(55.059) scale(0.318)">
          <g>
            <path d="M 33.712 0 C 33.713 7.812, 29.057 17.995, 23.439 23.439 C 17.82 28.882, 7.43 33.043, 0 32.66 C -7.43 32.277, -15.377 26.583, -21.14 21.14 C -26.903 15.697, -34.563 7.063, -34.579 0 C -34.595 -7.063, -26.998 -15.9, -21.235 -21.235 C -15.472 -26.57, -7.445 -31.645, 0 -32.012 C 7.445 -32.378, 17.814 -28.768, 23.433 -23.433 C 29.052 -18.098, 33.711 -7.812, 33.712 0 Z" fill="#6A3E7A" />
            <path d="M 26.166 3.691 C 26.272 9.36, 22.736 17.151, 18.586 21.015 C 14.435 24.879, 6.969 26.941, 1.261 26.874 C -4.447 26.807, -11.732 24.477, -15.662 20.613 C -19.592 16.749, -22.098 9.554, -22.321 3.691 C -22.544 -2.173, -20.93 -10.764, -17 -14.57 C -13.069 -18.375, -4.565 -19.403, 1.261 -19.141 C 7.086 -18.88, 13.802 -16.807, 17.953 -13.002 C 22.104 -9.196, 26.061 -1.979, 26.166 3.691 Z" fill="#6A3E7A" />
            <path d="M 16.381 3.751 C 16.393 7.59, 16.887 12.486, 14.831 15.3 C 12.775 18.114, 7.853 19.939, 4.045 20.636 C 0.237 21.333, -4.637 21.248, -8.015 19.483 C -11.394 17.718, -15.195 13.593, -16.226 10.045 C -17.257 6.497, -15.827 1.417, -14.199 -1.806 C -12.572 -5.028, -9.534 -7.215, -6.461 -9.288 C -3.387 -11.362, 0.704 -14.503, 4.241 -14.244 C 7.777 -13.985, 12.733 -10.735, 14.757 -7.736 C 16.78 -4.736, 16.369 -0.088, 16.381 3.751 Z" fill="#6A3E7A" />
          </g>
          <g transform="translate(-11.212 -11.96) rotate(-28)">
            <ellipse cx="0" cy="0" rx="11.213" ry="6.728" fill="#fff9f3" />
          </g>
        </g>
      </g>
      <g id="motif-72" data-role="filler">
        <g transform="translate(27.057 1039.418) rotate(195.41) scale(0.287)">
          <path d="M -32.5 0 Q -16.25 -17.625 0 0 Q 16.25 17.625 32.5 0" fill="none" stroke="#6A3E7A" stroke-width="5.85" stroke-linecap="round" />
          <g transform="translate(-10.627 -11.336) rotate(-28)">
            <ellipse cx="0" cy="0" rx="10.628" ry="6.376" fill="#fff9f3" />
          </g>
        </g>
      </g>
      <g id="motif-73" data-role="filler">
        <g transform="translate(883.733 163.665) rotate(377.473) scale(0.447)">
          <g>
            <path d="M 33.926 0 C 33.965 8.178, 30.308 18.671, 24.654 24.654 C 19 30.637, 7.503 36.612, 0 35.897 C -7.503 35.182, -15.446 26.348, -20.365 20.365 C -25.284 14.382, -29.03 7.27, -29.511 0 C -29.993 -7.27, -28.171 -17.253, -23.253 -23.253 C -18.334 -29.253, -7.945 -35.808, 0 -36.002 C 7.945 -36.196, 18.762 -30.417, 24.416 -24.416 C 30.071 -18.416, 33.886 -8.178, 33.926 0 Z" fill="#6A3E7A" />
            <circle cx="16.046" cy="2.156" r="8.349" fill="#6A3E7A" />
          </g>
          <g transform="translate(-11.212 -11.959) rotate(-28)">
            <ellipse cx="0" cy="0" rx="11.212" ry="6.727" fill="#fff9f3" />
          </g>
        </g>
      </g>
      <g id="motif-74" data-role="filler">
        <g transform="translate(1332.499 236.704) rotate(90.58) scale(0.322)">
          <path d="M -32.5 0 Q -16.25 -16.188 0 0 Q 16.25 16.188 32.5 0" fill="none" stroke="#EF6F6C" stroke-width="5.85" stroke-linecap="round" />
          <g transform="translate(-10.627 -11.336) rotate(-28)">
            <ellipse cx="0" cy="0" rx="10.628" ry="6.376" fill="#fff9f3" />
          </g>
        </g>
      </g>
      <g id="motif-75" data-role="filler">
        <g transform="translate(408.136 170.635) rotate(50.393) scale(0.405)">
          <g>
            <path d="M 35.829 0 C 35.322 8.445, 25.833 18.265, 18.683 23.428 C 11.533 28.591, 0.381 32.794, -7.07 30.978 C -14.522 29.162, -22.631 19.896, -26.023 12.532 C -29.416 5.168, -30.575 -5.911, -27.426 -13.208 C -24.278 -20.505, -15.324 -28.91, -7.132 -31.249 C 1.059 -33.588, 14.565 -32.45, 21.725 -27.242 C 28.885 -22.034, 36.336 -8.445, 35.829 0 Z" fill="#6A3E7A" />
            <path d="M 30.188 -0.03 C 29.38 5.298, 24.202 9.936, 20.523 13.918 C 16.844 17.9, 13.005 22.515, 8.113 23.864 C 3.221 25.214, -4.301 24.605, -8.828 22.015 C -13.356 19.425, -17.416 13.365, -19.051 8.323 C -20.686 3.282, -20.28 -3.06, -18.638 -8.233 C -16.996 -13.407, -13.719 -19.756, -9.199 -22.719 C -4.68 -25.682, 2.719 -26.789, 8.481 -26.011 C 14.243 -25.232, 21.756 -22.379, 25.374 -18.049 C 28.992 -13.719, 30.997 -5.358, 30.188 -0.03 Z" fill="#2E2360" />
          </g>
          <g transform="translate(-11.212 -11.96) rotate(-28)">
            <ellipse cx="0" cy="0" rx="11.213" ry="6.728" fill="#fff9f3" />
          </g>
        </g>
      </g>
      <g id="motif-76" data-role="filler">
        <g transform="translate(1301.006 913.954) rotate(243.834) scale(0.412)">
          <g>
            <path d="M -32.5 0 A 32.5 32.5 0 0 0 32.5 0 L 0 0 Z" fill="#6A3E7A" transform="rotate(212.033)" />
            <path d="M -23.4 0 A 23.4 23.4 0 0 1 23.4 0 L 0 0 Z" fill="#6A3E7A" transform="rotate(316.151)" />
          </g>
          <g transform="translate(-19.5 -20.8) rotate(-28)">
            <ellipse cx="0" cy="0" rx="19.5" ry="11.7" fill="#fff9f3" />
          </g>
        </g>
      </g>
      <g id="motif-77" data-role="secondary">
        <g transform="translate(170.716 647.654) rotate(220.998) scale(0.603)">
          <path d="M -32.5 0 Q -16.25 -15.373 0 0 Q 16.25 15.373 32.5 0" fill="none" stroke="#EF6F6C" stroke-width="5.85" stroke-linecap="round" />
          <g transform="translate(-10.627 -11.336) rotate(-28)">
            <ellipse cx="0" cy="0" rx="10.628" ry="6.376" fill="#fff9f3" />
          </g>
        </g>
      </g>
      <g id="motif-78" data-role="secondary">
        <g transform="translate(541.035 964.214) rotate(95.743) scale(0.651)">
          <g>
            <path d="M 31.911 0 C 32.399 8.481, 28.358 21.649, 21.754 27.279 C 15.151 32.909, 0.862 35.947, -7.711 33.782 C -16.283 31.618, -26.319 22.16, -29.679 14.293 C -33.04 6.425, -31.604 -5.713, -27.874 -13.423 C -24.143 -21.133, -15.08 -30.268, -7.296 -31.966 C 0.488 -33.664, 12.294 -28.937, 18.828 -23.61 C 25.363 -18.282, 31.424 -8.481, 31.911 0 Z" fill="#EF6F6C" />
            <path d="M 23.389 -3.837 C 23.923 1.062, 24.967 7.883, 22.532 12.025 C 20.096 16.166, 13.759 19.514, 8.775 21.012 C 3.79 22.511, -2.398 22.519, -7.374 21.014 C -12.349 19.51, -18.415 16.129, -21.078 11.987 C -23.742 7.845, -23.832 1.092, -23.356 -3.837 C -22.88 -8.765, -20.909 -13.513, -18.223 -17.585 C -15.537 -21.657, -11.578 -26.912, -7.238 -28.269 C -2.898 -29.627, 3.388 -27.549, 7.815 -25.733 C 12.242 -23.916, 16.73 -21.018, 19.326 -17.369 C 21.922 -13.719, 22.854 -8.735, 23.389 -3.837 Z" fill="#EF6F6C" />
          </g>
          <g transform="translate(-11.212 -11.96) rotate(-28)">
            <ellipse cx="0" cy="0" rx="11.213" ry="6.728" fill="#fff9f3" />
          </g>
        </g>
      </g>
      <g id="motif-79" data-role="secondary">
        <g transform="translate(972.755 421.467) rotate(105.119) scale(0.671)">
          <g>
            <g>
              <path d="M 4.783 0.545 C 4.836 2.478, 3.161 6.147, 1.289 6.837 C -0.584 7.527, -5.111 6.461, -6.453 4.684 C -7.795 2.908, -8.001 -2.246, -6.764 -3.82 C -5.527 -5.394, -0.957 -5.487, 0.968 -4.759 C 2.892 -4.032, 4.729 -1.388, 4.783 0.545 Z" fill="#EF6F6C" />
              <circle cx="-6.105" cy="-0.131" r="7.112" fill="#6A3E7A" />
              <path d="M 6.176 -0.781 C 6.224 0.809, 4.204 3.928, 2.633 4.436 C 1.062 4.943, -2.299 3.619, -3.252 2.263 C -4.204 0.907, -4.015 -2.474, -3.082 -3.702 C -2.15 -4.929, 0.799 -5.59, 2.342 -5.103 C 3.885 -4.616, 6.127 -2.371, 6.176 -0.781 Z" fill="#6A3E7A" />
              <circle cx="10.659" cy="-11.431" r="5.716" fill="#EF6F6C" />
            </g>
            <g>
              <line x1="-1.411" y1="4.92" x2="-6.251" y2="21.795" stroke="#EF6F6C" stroke-width="0.341" stroke-linecap="round" />
              <line x1="0.544" y1="-5.09" x2="2.41" y2="-22.545" stroke="#EF6F6C" stroke-width="0.341" stroke-linecap="round" />
            </g>
          </g>
          <g transform="translate(-10.237 -10.92) rotate(-28)">
            <ellipse cx="0" cy="0" rx="10.237" ry="6.143" fill="#fff9f3" />
          </g>
        </g>
      </g>
      <g id="motif-80" data-role="secondary">
        <g transform="translate(1229.701 405.43) rotate(229.353) scale(0.626)">
          <g>
            <g>
              <path d="M -32.5 0 A 32.5 32.5 0 0 0 32.5 0 L 0 0 Z" fill="#EF6F6C" transform="rotate(310.596)" />
              <path d="M -23.4 0 A 23.4 23.4 0 0 0 23.4 0 L 0 0 Z" fill="#EF6F6C" transform="rotate(67.819)" />
            </g>
            <circle cx="0" cy="0" r="42.963" fill="none" stroke="#6A3E7A" stroke-width="1.138" />
          </g>
          <g transform="translate(-19.5 -20.8) rotate(-28)">
            <ellipse cx="0" cy="0" rx="19.5" ry="11.7" fill="#fff9f3" />
          </g>
        </g>
      </g>
      <g id="motif-81" data-role="hero">
        <g transform="translate(169.31 631.522) rotate(44.788) scale(1.481)">
          <g>
            <path d="M -32.5 0 Q -16.25 -16.486 0 0 Q 16.25 16.486 32.5 0" fill="none" stroke="#6A3E7A" stroke-width="5.85" stroke-linecap="round" />
            <circle cx="0" cy="0" r="19.771" fill="none" stroke="#F7A072" stroke-width="0.779" />
            <g>
              <circle cx="-12.259" cy="-23.032" r="1.771" fill="#F7A072" />
              <circle cx="23.032" cy="-12.259" r="1.771" fill="#F7A072" />
              <circle cx="12.259" cy="23.032" r="1.771" fill="#F7A072" />
              <circle cx="-23.032" cy="12.259" r="1.771" fill="#F7A072" />
            </g>
            <path d="M -17.424 -14.815 A 22.871 22.871 0 0 1 2.668 -22.715" fill="none" stroke="#F7A072" stroke-width="0.567" stroke-linecap="round" />
          </g>
          <g transform="translate(-10.627 -11.336) rotate(-28)">
            <ellipse cx="0" cy="0" rx="10.628" ry="6.376" fill="#fff9f3" />
          </g>
        </g>
      </g>
      <g id="motif-82" data-role="hero">
        <g transform="translate(522.837 977.061) rotate(11.394) scale(1.752)">
          <g>
            <g>
              <path d="M 28.187 0 C 27.569 8.007, 26.865 16.546, 22.167 22.167 C 17.47 27.789, 7.785 33.332, 0 33.727 C -7.785 34.123, -19.164 30.165, -24.543 24.543 C -29.923 18.922, -32.875 7.583, -32.277 0 C -31.679 -7.583, -26.333 -15.531, -20.953 -20.953 C -15.574 -26.376, -7.804 -31.715, 0 -32.535 C 7.804 -33.355, 21.175 -31.296, 25.873 -25.873 C 30.571 -20.451, 28.804 -8.007, 28.187 0 Z" fill="#EF6F6C" />
              <circle cx="-11.28" cy="-2.875" r="6.924" fill="#6A3E7A" />
            </g>
            <circle cx="0" cy="0" r="22.876" fill="none" stroke="#EF6F6C" stroke-width="0.831" />
            <path d="M 21.495 13.521 A 25.393 25.393 0 0 1 -12.97 21.831" fill="none" stroke="#EF6F6C" stroke-width="0.605" stroke-linecap="round" />
          </g>
          <g transform="translate(-11.336 -12.092) rotate(-28)">
            <ellipse cx="0" cy="0" rx="11.336" ry="6.802" fill="#fff9f3" />
          </g>
        </g>
      </g>
      <g id="motif-83" data-role="hero">
        <g transform="translate(978.466 441.009) rotate(-68.385) scale(1.765)">
          <g>
            <path d="M 33.336 0 C 33.334 6.819, 29.037 15.388, 24.374 20.452 C 19.711 25.517, 12.403 28.628, 5.358 30.386 C -1.687 32.144, -11.897 34.204, -17.897 30.999 C -23.898 27.794, -28.571 18.161, -30.645 11.154 C -32.719 4.147, -32.477 -4.037, -30.341 -11.043 C -28.206 -18.05, -23.827 -27.399, -17.831 -30.884 C -11.835 -34.37, -1.401 -33.693, 5.635 -31.956 C 12.671 -30.219, 19.769 -25.788, 24.386 -20.462 C 29.002 -15.136, 33.338 -6.819, 33.336 0 Z" fill="#2E2360" />
            <circle cx="0" cy="0" r="26.351" fill="none" stroke="#EF6F6C" stroke-width="0.806" />
            <polygon points="15.932,0 -7.966,13.797 -7.966,-13.797" fill="none" stroke="#EF6F6C" stroke-width="0.513" transform="rotate(286.106)" />
          </g>
          <g transform="translate(-10.997 -11.73) rotate(-28)">
            <ellipse cx="0" cy="0" rx="10.997" ry="6.598" fill="#fff9f3" />
          </g>
        </g>
      </g>
      <g id="motif-84" data-role="hero">
        <g transform="translate(1222.837 422.939) rotate(-9.614) scale(1.725)">
          <g>
            <g>
              <path d="M 32.327 0 C 32.611 6.818, 29.694 15.925, 25.231 21.171 C 20.768 26.418, 12.807 29.72, 5.55 31.477 C -1.707 33.235, -11.717 34.899, -18.311 31.716 C -24.905 28.533, -31.574 19.663, -34.012 12.379 C -36.45 5.095, -35.937 -5.302, -32.938 -11.989 C -29.939 -18.675, -22.573 -23.694, -16.017 -27.742 C -9.461 -31.79, -0.194 -37.61, 6.396 -36.276 C 12.987 -34.942, 19.202 -25.785, 23.524 -19.739 C 27.845 -13.693, 32.042 -6.818, 32.327 0 Z" fill="#6A3E7A" />
              <path d="M 26.929 -3.558 C 27.281 1.474, 24.092 8.026, 20.646 12.426 C 17.199 16.826, 11.605 21.732, 6.252 22.841 C 0.899 23.95, -7.038 22.148, -11.473 19.08 C -15.908 16.012, -18.375 9.72, -20.357 4.433 C -22.339 -0.855, -24.896 -7.624, -23.366 -12.644 C -21.837 -17.664, -16.128 -22.733, -11.179 -25.687 C -6.231 -28.641, 1.372 -31.686, 6.324 -30.367 C 11.276 -29.047, 15.099 -22.237, 18.533 -17.769 C 21.967 -13.301, 26.577 -8.59, 26.929 -3.558 Z" fill="#EF6F6C" />
              <path d="M 15.736 3.853 C 15.985 7.752, 14.564 13.596, 11.841 16.296 C 9.118 18.996, 3.479 20.122, -0.601 20.055 C -4.681 19.987, -9.923 18.592, -12.64 15.892 C -15.357 13.192, -16.882 7.887, -16.903 3.853 C -16.924 -0.18, -15.482 -5.462, -12.765 -8.31 C -10.048 -11.159, -4.453 -13.44, -0.601 -13.238 C 3.251 -13.035, 7.625 -9.944, 10.348 -7.096 C 13.071 -4.247, 15.487 -0.045, 15.736 3.853 Z" fill="#6A3E7A" />
            </g>
            <circle cx="0" cy="0" r="21.43" fill="none" stroke="#6A3E7A" stroke-width="0.833" />
            <g>
              <line x1="0.913" y1="-5.607" x2="4.102" y2="-25.18" stroke="#6A3E7A" stroke-width="0.379" stroke-linecap="round" />
              <line x1="4.106" y1="3.926" x2="18.438" y2="17.633" stroke="#6A3E7A" stroke-width="0.379" stroke-linecap="round" />
              <line x1="-5.48" y1="1.499" x2="-24.607" y2="6.733" stroke="#6A3E7A" stroke-width="0.379" stroke-linecap="round" />
            </g>
          </g>
          <g transform="translate(-11.362 -12.119) rotate(-28)">
            <ellipse cx="0" cy="0" rx="11.362" ry="6.817" fill="#fff9f3" />
          </g>
        </g>
      </g>
    </g>
  </g>
</svg>
